<svg width="754" height="262" viewBox="0 0 754 262" fill="none" xmlns="http://www.w3.org/2000/svg">
<path d="M175.4 87.8C175.4 135.5 136.5 174.1 88.5 174.1C40.5 174.1 1.5 135.5 1.5 87.8C1.5 40.1 40.5 1.5 88.4 1.5C136.3 1.5 175.3 40.1 175.3 87.8H175.4Z" stroke="black" stroke-width="1.8"/>
<path d="M89.1 22.2002C125.1 22.4002 154.1 52.0002 153.9 88.2002C153.7 124.5 124.3 153.7 88.4 153.5C52.5 153.3 23.4 123.7 23.6 87.5002C23.8 51.2002 53.1 22.0002 89.1 22.2002Z" stroke="black" stroke-width="1.6"/>
<path d="M19.7 73.2C19.4 74.5 19.1 74.5 17.9 74.2L10.9 72.7C9.9 72.5 9.5 72.4 9.7 71.2C10.1 69.1 11.4 67.9 15.1 68.7C19.3 69.6 20 71.2 19.6 73.1H20.2C20.4 72.3 20.5 71.4 20.4 70.5C20.1 68.5 18.6 66.6 16.1 66.1C13.4 65.5 11.3 66.6 10.1 68.3C9.6 69 9.3 69.9 9.1 70.8L8 76.1H8.5C8.7 75.1 9.1 74.8 10.2 75L17.5 76.6C18.6 76.8 18.8 77.3 18.6 78.4H19.1L20.2 73.2H19.6H19.7Z" fill="black"/>
<path d="M19.6 73.2H20.2L19.1 78.4H18.6C18.8 77.3 18.6 76.8 17.5 76.6L10.2 75C9.1 74.8 8.7 75.1 8.5 76.1H8L9.1 70.8C9.3 69.9 9.6 69 10.1 68.3C11.3 66.6 13.4 65.5 16.1 66.1C18.6 66.6 20.1 68.5 20.4 70.5C20.5 71.4 20.4 72.3 20.2 73.1H19.6C20 71.2 19.3 69.6 15.1 68.7C11.4 67.9 10.1 69.1 9.7 71.2C9.5 72.4 9.9 72.5 10.9 72.7L17.9 74.2C19.1 74.5 19.4 74.5 19.7 73.2H19.6ZM19.6 73.2V73" stroke="black" stroke-width="0.2"/>
<path d="M20.9 67.8998C21.3 66.8998 21.0999 66.3998 20.0999 65.9998L13.1 63.3998C12.1 62.9998 11.6 63.3998 11.2 64.2998L10.7 64.0998L14 55.2998H17.0999V55.8998C15.4999 56.3998 13.8 57.4998 13.2 59.1998C12.7 60.4998 13.2 60.6998 14.2 61.0998L17 62.1998V61.8998C17.7 60.4998 17.6 59.6998 16.4 58.6998L16.5999 58.0998L20.7999 59.6998L20.5999 60.2998C18.9999 60.0998 18.3999 60.7998 17.7999 62.1998V62.4998L20.7999 63.6998C21.5999 63.9998 22.1999 64.0998 22.5999 63.0998C23.2999 61.2998 22.9 59.2998 22 57.6998L22.2999 57.3998L24.5999 59.4998L21.2999 68.2998L20.7999 68.0998V67.8998H20.9Z" fill="black" stroke="black" stroke-width="0.2"/>
<path d="M20.9 67.8998C21.3 66.8998 21.0999 66.3998 20.0999 65.9998L13.1 63.3998C12.1 62.9998 11.6 63.3998 11.2 64.2998L10.7 64.0998L14 55.2998H17.0999V55.8998C15.4999 56.3998 13.8 57.4998 13.2 59.1998C12.7 60.4998 13.2 60.6998 14.2 61.0998L17 62.1998V61.8998C17.7 60.4998 17.6 59.6998 16.4 58.6998L16.5999 58.0998L20.7999 59.6998L20.5999 60.2998C18.9999 60.0998 18.3999 60.7998 17.7999 62.1998V62.4998L20.7999 63.6998C21.5999 63.9998 22.1999 64.0998 22.5999 63.0998C23.2999 61.2998 22.9 59.2998 22 57.6998L22.2999 57.3998L24.5999 59.4998L21.2999 68.2998L20.7999 68.0998V67.8998H20.9Z" fill="black" stroke="black" stroke-width="0.2"/>
<path d="M27.2001 45.5002L24.3 41.1002L29.2001 42.8002L27.2001 45.5002L27.6 46.2002L29.9001 43.0002L31.7001 43.6002C32.0001 43.6002 32.3 43.8002 32.5 44.0002C32.9 44.3002 32.9 44.6002 32.3 45.4002L32.7001 45.7002L35.9001 41.3002L35.5 41.0002C34.7 42.1002 33.9 41.8002 32.8 41.4002L23.6 38.2002L22.8 40.4002L27.5 47.6002C28.2 48.7002 28.7001 49.4002 28.2001 50.8002L28.6 51.1002L31.1 47.8002L30.7001 47.5002C30.3001 48.0002 29.6001 48.4002 28.9001 47.9002C28.6001 47.7002 28.3 47.2002 28 46.9002L27.4001 46.0002L27 45.3002L27.2001 45.5002Z" fill="black"/>
<path d="M27.2001 45.5002L24.3 41.1002L29.2001 42.8002L27.2001 45.5002ZM27.2001 45.5002L27.6 46.2002L29.9001 43.0002L31.7001 43.6002C32.0001 43.6002 32.3 43.8002 32.5 44.0002C32.9 44.3002 32.9 44.6002 32.3 45.4002L32.7001 45.7002L35.9001 41.3002L35.5 41.0002C34.7 42.1002 33.9 41.8002 32.8 41.4002L23.6 38.2002L22.8 40.4002L27.5 47.6002C28.2 48.7002 28.7001 49.4002 28.2001 50.8002L28.6 51.1002L31.1 47.8002L30.7001 47.5002C30.3001 48.0002 29.6001 48.4002 28.9001 47.9002C28.6001 47.7002 28.3 47.2002 28 46.9002L27.4001 46.0002L27 45.3002L27.2001 45.5002Z" stroke="black" stroke-width="0.2"/>
<path d="M27.2001 45.5002L24.3 41.1002L29.2001 42.8002L27.2001 45.5002L27.6 46.2002L29.9001 43.0002L31.7001 43.6002C32.0001 43.6002 32.3 43.8002 32.5 44.0002C32.9 44.3002 32.9 44.6002 32.3 45.4002L32.7001 45.7002L35.9001 41.3002L35.5 41.0002C34.7 42.1002 33.9 41.8002 32.8 41.4002L23.6 38.2002L22.8 40.4002L27.5 47.6002C28.2 48.7002 28.7001 49.4002 28.2001 50.8002L28.6 51.1002L31.1 47.8002L30.7001 47.5002C30.3001 48.0002 29.6001 48.4002 28.9001 47.9002C28.6001 47.7002 28.3 47.2002 28 46.9002L27.4001 46.0002L27 45.3002L27.2001 45.5002Z" fill="black"/>
<path d="M27.2001 45.5002L24.3 41.1002L29.2001 42.8002L27.2001 45.5002ZM27.2001 45.5002L27.6 46.2002L29.9001 43.0002L31.7001 43.6002C32.0001 43.6002 32.3 43.8002 32.5 44.0002C32.9 44.3002 32.9 44.6002 32.3 45.4002L32.7001 45.7002L35.9001 41.3002L35.5 41.0002C34.7 42.1002 33.9 41.8002 32.8 41.4002L23.6 38.2002L22.8 40.4002L27.5 47.6002C28.2 48.7002 28.7001 49.4002 28.2001 50.8002L28.6 51.1002L31.1 47.8002L30.7001 47.5002C30.3001 48.0002 29.6001 48.4002 28.9001 47.9002C28.6001 47.7002 28.3 47.2002 28 46.9002L27.4001 46.0002L27 45.3002L27.2001 45.5002Z" stroke="black" stroke-width="0.2"/>
<path d="M11 92.1001C8.20002 92.3001 7.50002 93.3001 7.60002 94.9001C7.80002 97.1001 9.20002 97.7001 11.5 97.5001L16.9 97.1001C18 97.1001 18.3 96.6001 18.2 95.5001H18.7L19 99.3001H18.5C18.5 98.2001 18 97.9001 17 98.0001L11.5 98.4001C8.80002 98.6001 7.30002 97.6001 7.00002 94.6001C6.80002 91.5001 8.00002 89.9001 10.4 89.7001L16.3 89.2001C17.4 89.2001 17.7 88.7001 17.6 87.6001H18.1L18.6 93.1001H18.1C18.1 92.0001 17.6 91.7001 16.6 91.8001L11.2 92.2001H11V92.1001Z" fill="black" stroke="black" stroke-width="0.2"/>
<path d="M14 111.5L19 110.1C20.3 109.7 21.0001 109.4 20.7001 107.9H21.2001C21.2001 107.8 22.3 111.7 22.3 111.7H21.8C21.2 110.5 20.6 110.5 19.3 110.9L11 113.2L10.6 111.8L17.5 103.5L11.7001 105.1C10.1001 105.5 9.80005 105.8 9.90005 107.5H9.40005C9.40005 107.6 8.30005 103.4 8.30005 103.4H8.80005C9.40005 104.6 9.90005 104.8 11.3 104.4L18.2001 102.5C18.6001 101.9 18.8 101.2 18.8 100.5H19.3L20.3 104.2L14.1 111.6L14 111.5Z" fill="black" stroke="black" stroke-width="0.2"/>
<path d="M14 111.5L19 110.1C20.3 109.7 21.0001 109.4 20.7001 107.9H21.2001C21.2001 107.8 22.3 111.7 22.3 111.7H21.8C21.2 110.5 20.6 110.5 19.3 110.9L11 113.2L10.6 111.8L17.5 103.5L11.7001 105.1C10.1001 105.5 9.80005 105.8 9.90005 107.5H9.40005C9.40005 107.6 8.30005 103.4 8.30005 103.4H8.80005C9.40005 104.6 9.90005 104.8 11.3 104.4L18.2001 102.5C18.6001 101.9 18.8 101.2 18.8 100.5H19.3L20.3 104.2L14.1 111.6L14 111.5Z" fill="black" stroke="black" stroke-width="0.2"/>
<path d="M21.7 114.8C22.7 114.4 22.9 113.9 22.4 112.9L22.9 112.7L25.1 117.8L24.6 118C24.2 117 23.7 116.8 22.7 117.2L15.8 120.1C14.8 120.5 14.6 121 15.1 122L14.6 122.2L12.4 117.1L12.9 116.9C13.3 117.9 13.8 118.1 14.8 117.7L21.7 114.7V114.8Z" fill="black" stroke="black" stroke-width="0.2"/>
<path d="M21.7 114.8C22.7 114.4 22.9 113.9 22.4 112.9L22.9 112.7L25.1 117.8L24.6 118C24.2 117 23.7 116.8 22.7 117.2L15.8 120.1C14.8 120.5 14.6 121 15.1 122L14.6 122.2L12.4 117.1L12.9 116.9C13.3 117.9 13.8 118.1 14.8 117.7L21.7 114.7V114.8Z" fill="black" stroke="black" stroke-width="0.2"/>
<path d="M30 126.7L27.7 129L27.3 128.6C27.9 127.4 28.5 125.4 27.8 124.1L20.2 128.5C19.3 129.1 19.2 129.6 19.7 130.5L19.3 130.7L16.5 125.9L16.9 125.6C17.5 126.6 17.9 126.7 18.9 126.2L26.5 121.8C25.6 120.6 23.9 120.1 22.4 120L22.2 119.4L25.3 118.5L30 126.5V126.7Z" fill="black" stroke="black" stroke-width="0.2"/>
<path d="M34.4 147.7C33.4 146.8 33.6 146.5 34.4 145.7L39.2 140.3C39.9 139.6 40.2 139.2 41 140C42.6 141.4 43 143.1 40.5 145.9C37.7 149.1 35.9 148.9 34.4 147.7L34 148.1C34.7 148.8 35.5 149.3 36.3 149.6C38.2 150.3 40.6 149.9 42.3 148C44.1 145.9 44.3 143.6 43.3 141.7C42.9 140.9 42.3 140.3 41.6 139.6L37.6 136L37.3 136.4C38.1 137.1 38.2 137.6 37.5 138.5L32.5 144.1C31.8 144.9 31.3 144.9 30.4 144.1L30.1 144.5L34.1 148.1L34.5 147.7H34.4Z" fill="black"/>
<path d="M34.4 147.7C33.4 146.8 33.6 146.5 34.4 145.7L39.2 140.3C39.9 139.6 40.2 139.2 41 140C42.6 141.4 43 143.1 40.5 145.9C37.7 149.1 35.9 148.9 34.4 147.7ZM34.4 147.7L34 148.1C34.7 148.8 35.5 149.3 36.3 149.6C38.2 150.3 40.6 149.9 42.3 148C44.1 145.9 44.3 143.6 43.3 141.7C42.9 140.9 42.3 140.3 41.6 139.6L37.6 136L37.3 136.4C38.1 137.1 38.2 137.6 37.5 138.5L32.5 144.1C31.8 144.9 31.3 144.9 30.4 144.1L30.1 144.5L34.1 148.1L34.5 147.7H34.4Z" stroke="black" stroke-width="0.2"/>
<path d="M34.4 147.7C33.4 146.8 33.6 146.5 34.4 145.7L39.2 140.3C39.9 139.6 40.2 139.2 41 140C42.6 141.4 43 143.1 40.5 145.9C37.7 149.1 35.9 148.9 34.4 147.7L34 148.1C34.7 148.8 35.5 149.3 36.3 149.6C38.2 150.3 40.6 149.9 42.3 148C44.1 145.9 44.3 143.6 43.3 141.7C42.9 140.9 42.3 140.3 41.6 139.6L37.6 136L37.3 136.4C38.1 137.1 38.2 137.6 37.5 138.5L32.5 144.1C31.8 144.9 31.3 144.9 30.4 144.1L30.1 144.5L34.1 148.1L34.5 147.7H34.4Z" fill="black"/>
<path d="M34.4 147.7C33.4 146.8 33.6 146.5 34.4 145.7L39.2 140.3C39.9 139.6 40.2 139.2 41 140C42.6 141.4 43 143.1 40.5 145.9C37.7 149.1 35.9 148.9 34.4 147.7ZM34.4 147.7L34 148.1C34.7 148.8 35.5 149.3 36.3 149.6C38.2 150.3 40.6 149.9 42.3 148C44.1 145.9 44.3 143.6 43.3 141.7C42.9 140.9 42.3 140.3 41.6 139.6L37.6 136L37.3 136.4C38.1 137.1 38.2 137.6 37.5 138.5L32.5 144.1C31.8 144.9 31.3 144.9 30.4 144.1L30.1 144.5L34.1 148.1L34.5 147.7H34.4Z" stroke="black" stroke-width="0.2"/>
<path d="M64.6 153.6L64.1 156.8H63.5C63.3 155.4 62.6 153.5 61.3 152.8L57.8 160.9C57.4 161.9 57.6 162.4 58.6 162.8L58.4 163.3L53.3 161.1L53.5 160.6C54.5 161 55 160.9 55.4 159.9L58.9 151.8C57.4 151.4 55.8 152 54.6 152.8L54.1 152.4L56 149.9L64.5 153.6H64.6Z" fill="black" stroke="black" stroke-width="0.2"/>
<path d="M81.9 157.4L82.2 160.6H81.6C81 159.4 79.9 157.7 78.4 157.5L77 166.2C76.8 167.3 77.2 167.7 78.3 167.8V168.3L72.7 167.4V166.9C73.9 167.1 74.3 166.8 74.5 165.7L75.9 157C74.3 157 73 157.9 72 159.1L71.5 158.9L72.7 156L81.9 157.4Z" fill="black" stroke="black" stroke-width="0.2"/>
<path d="M83.2 168.4C84.3 168.4 84.7 168 84.7 167V159.5C84.7 158.4 84.3 158.1 83.2 158.1V157.6H92.5L93.5 160.5L93 160.7C92 159.3 90.3 158.2 88.6 158.2C86.9 158.2 87.2 158.7 87.2 159.8V162.8H87.5C89.1 162.8 89.7 162.5 90.3 161H90.9V165.5H90.3C89.9 163.9 89.1 163.6 87.6 163.6H87.3V166.9C87.3 167.8 87.3 168.4 88.5 168.4C90.4 168.4 92.1 167.3 93.3 165.9L93.7 166.1L92.5 169H83.2V168.5V168.4Z" fill="black" stroke="black" stroke-width="0.2"/>
<path d="M83.2 168.4C84.3 168.4 84.7 168 84.7 167V159.5C84.7 158.4 84.3 158.1 83.2 158.1V157.6H92.5L93.5 160.5L93 160.7C92 159.3 90.3 158.2 88.6 158.2C86.9 158.2 87.2 158.7 87.2 159.8V162.8H87.5C89.1 162.8 89.7 162.5 90.3 161H90.9V165.5H90.3C89.9 163.9 89.1 163.6 87.6 163.6H87.3V166.9C87.3 167.8 87.3 168.4 88.5 168.4C90.4 168.4 92.1 167.3 93.3 165.9L93.7 166.1L92.5 169H83.2V168.5V168.4Z" fill="black" stroke="black" stroke-width="0.2"/>
<path d="M120.9 155.4L121.6 155.1C122.8 154.5 123 153.8 122.8 152.5L123.3 152.2L125.3 156.2L124.8 156.5C124 155.3 123.1 155.2 122.1 155.7L121.3 156.1L122.8 159.2C123.3 160.2 123.8 160.3 124.8 159.8L125 160.3L120 162.8L119.8 162.3C120.8 161.8 121 161.3 120.5 160.4L117.2 153.7C116.7 152.7 116.2 152.6 115.2 153.1L115 152.6L123.3 148.5L125.4 150.8L125 151.2C123.5 150.3 121.6 149.9 120 150.7C118.4 151.5 119 151.5 119.5 152.4L120.9 155.4Z" fill="black" stroke="black" stroke-width="0.2"/>
<path d="M130.8 151.5L129.4 146.4L133.5 149.5L130.7 151.5L130.9 152.3L134.1 150L135.6 151.2C135.8 151.4 136.1 151.6 136.3 151.8C136.6 152.2 136.5 152.5 135.7 153.1L136 153.5L140.4 150.3L140.1 149.9C139 150.7 138.4 150.1 137.4 149.4L129.7 143.5L128.3 145.4L130.5 153.7C130.9 155 131 155.8 130.1 157L130.4 157.4L133.8 155L133.5 154.6C132.9 155 132.2 155.1 131.7 154.5C131.5 154.1 131.3 153.7 131.2 153.3L130.9 152.3L130.7 151.5H130.8Z" fill="black"/>
<path d="M130.7 151.5L133.5 149.5L129.4 146.4L130.8 151.5H130.7ZM130.7 151.5L130.9 152.3M130.9 152.3L134.1 150L135.6 151.2C135.8 151.4 136.1 151.6 136.3 151.8C136.6 152.2 136.5 152.5 135.7 153.1L136 153.5L140.4 150.3L140.1 149.9C139 150.7 138.4 150.1 137.4 149.4L129.7 143.5L128.3 145.4L130.5 153.7C130.9 155 131 155.8 130.1 157L130.4 157.4L133.8 155L133.5 154.6C132.9 155 132.2 155.1 131.7 154.5C131.5 154.1 131.3 153.7 131.2 153.3L130.9 152.3Z" stroke="black" stroke-width="0.2"/>
<path d="M152.7 136.8C153.3 135.9 153.3 135.4 152.3 134.7L146.1 130.5C145.2 129.9 144.7 130 144.1 131L143.7 130.7L148.9 122.9L151.9 123.7V124.2C150.1 124.3 148.2 125 147.3 126.5C146.5 127.6 146.9 127.9 147.9 128.6L150.4 130.3L150.6 130C151.5 128.7 151.6 128 150.6 126.7L150.9 126.2L154.6 128.7L154.3 129.2C152.8 128.7 152 129.2 151.2 130.4L151 130.7L153.7 132.5C154.5 133 155 133.3 155.6 132.4C156.7 130.8 156.7 128.8 156.2 127L156.6 126.8L158.4 129.4L153.2 137.2L152.8 136.9H152.7V136.8Z" fill="black" stroke="black" stroke-width="0.2"/>
<path d="M152.7 136.8C153.3 135.9 153.3 135.4 152.3 134.7L146.1 130.5C145.2 129.9 144.7 130 144.1 131L143.7 130.7L148.9 122.9L151.9 123.7V124.2C150.1 124.3 148.2 125 147.3 126.5C146.5 127.6 146.9 127.9 147.9 128.6L150.4 130.3L150.6 130C151.5 128.7 151.6 128 150.6 126.7L150.9 126.2L154.6 128.7L154.3 129.2C152.8 128.7 152 129.2 151.2 130.4L151 130.7L153.7 132.5C154.5 133 155 133.3 155.6 132.4C156.7 130.8 156.7 128.8 156.2 127L156.6 126.8L158.4 129.4L153.2 137.2L152.8 136.9H152.7V136.8Z" fill="black" stroke="black" stroke-width="0.2"/>
<path d="M156.6 110.5C155.6 110.2 155.1 110.5 154.8 111.5H154.3C154.3 111.4 156 106.1 156 106.1L156.5 106.3C156.2 107.4 156.4 107.8 157.4 108.2L164.5 110.5C165.5 110.8 166 110.5 166.3 109.5H166.8C166.8 109.6 165.1 114.9 165.1 114.9H164.6C164.9 113.7 164.7 113.2 163.7 112.9L156.6 110.6V110.5Z" fill="black" stroke="black" stroke-width="0.2"/>
<path d="M156.6 110.5C155.6 110.2 155.1 110.5 154.8 111.5H154.3C154.3 111.4 156 106.1 156 106.1L156.5 106.3C156.2 107.4 156.4 107.8 157.4 108.2L164.5 110.5C165.5 110.8 166 110.5 166.3 109.5H166.8C166.8 109.6 165.1 114.9 165.1 114.9H164.6C164.9 113.7 164.7 113.2 163.7 112.9L156.6 110.6V110.5Z" fill="black" stroke="black" stroke-width="0.2"/>
<path d="M22 51.3999L19 49.6999C18.1 49.1999 17.6999 48.8999 18.2999 47.8999C18.9999 46.5999 20.0999 46.1999 21.5999 46.9999C23.1999 47.8999 23.4 48.9999 22.5 50.5999L22 51.3999L22.5 51.6999L23.2 50.4999C24.3 48.5999 25.4 45.9999 22.9 44.5999C21.6 43.7999 19.7 44.2999 17.9 47.2999L15.2 52.1999L15.5999 52.3999C16.0999 51.3999 16.5999 51.1999 17.5999 51.7999L24.0999 55.4999C25.0999 55.9999 25.0999 56.4999 24.5999 57.4999L25.0999 57.6999L27.7999 52.8999L27.2999 52.6999C26.7999 53.6999 26.2999 53.7999 25.2999 53.2999L22.5 51.6999L22 51.3999Z" fill="black"/>
<path d="M22 51.3999L19 49.6999C18.1 49.1999 17.6999 48.8999 18.2999 47.8999C18.9999 46.5999 20.0999 46.1999 21.5999 46.9999C23.1999 47.8999 23.4 48.9999 22.5 50.5999L22 51.3999ZM22 51.3999L22.5 51.6999M22.5 51.6999L23.2 50.4999C24.3 48.5999 25.4 45.9999 22.9 44.5999C21.6 43.7999 19.7 44.2999 17.9 47.2999L15.2 52.1999L15.5999 52.3999C16.0999 51.3999 16.5999 51.1999 17.5999 51.7999L24.0999 55.4999C25.0999 55.9999 25.0999 56.4999 24.5999 57.4999L25.0999 57.6999L27.7999 52.8999L27.2999 52.6999C26.7999 53.6999 26.2999 53.7999 25.2999 53.2999L22.5 51.6999Z" stroke="black" stroke-width="0.2"/>
<path d="M27 45.4001L24.1 41.0001L29 42.7001L27 45.4001L27.4 46.1001L29.7 42.9001L31.5 43.5001C31.8 43.5001 32.1 43.7001 32.3 43.9001C32.7 44.2001 32.7 44.5001 32.1 45.3001L32.5 45.6001L35.7 41.2001L35.3 40.9001C34.5 42.0001 33.7 41.7001 32.6 41.3001L23.4 38.1001L22.6 40.3001L27.3 47.5001C28 48.6001 28.5 49.3001 28 50.7001L28.4 51.0001L30.9 47.7001L30.5 47.4001C30.1 47.9001 29.4 48.3001 28.7 47.8001C28.4 47.6001 28.1 47.1001 27.8 46.8001L27.2 46.0001L26.8 45.3001H27V45.4001Z" fill="black"/>
<path d="M27 45.4001L24.1 41.0001L29 42.7001L27 45.4001ZM27 45.4001L27.4 46.1001L29.7 42.9001L31.5 43.5001C31.8 43.5001 32.1 43.7001 32.3 43.9001C32.7 44.2001 32.7 44.5001 32.1 45.3001L32.5 45.6001L35.7 41.2001L35.3 40.9001C34.5 42.0001 33.7 41.7001 32.6 41.3001L23.4 38.1001L22.6 40.3001L27.3 47.5001C28 48.6001 28.5 49.3001 28 50.7001L28.4 51.0001L30.9 47.7001L30.5 47.4001C30.1 47.9001 29.4 48.3001 28.7 47.8001C28.4 47.6001 28.1 47.1001 27.8 46.8001L27.2 46.0001L26.8 45.3001H27V45.4001Z" stroke="black" stroke-width="0.2"/>
<path d="M35.7 32.9002L35.5 33.1002L33.2 30.7002C32.6 30.1002 32.4 29.7002 33.2 29.0002C34.4 27.9002 35.4 27.7002 36.5 28.8002C37.6 30.0002 37.6 31.1002 35.8 32.9002L36.1 33.6002C36.6 33.2002 37.1 32.9002 39.2 33.6002L41.2 34.4002C41.7 34.6002 42.1 34.8002 42.6 34.9002L45.4 32.3002L45.1 31.9002C44.1 32.7002 43 32.4002 41.9 31.9002L40.1 31.2002C39.6 31.0002 39 30.8002 38.4 30.9002C39.3 29.7002 39.8 28.1002 38.7 26.8002C37.6 25.6002 35.7 25.7002 34 27.2002L29.1 31.8002L29.4 32.2002C30.2 31.4002 30.7 31.4002 31.5 32.2002L36.6 37.7002C37.3 38.5002 37.3 39.0002 36.6 39.8002L36.9 40.2002L40.9 36.4002L40.6 36.0002C39.8 36.8002 39.3 36.8002 38.5 36.0002L36.1 33.5002L35.8 32.8002L35.7 32.9002Z" fill="black" stroke="black" stroke-width="0.2"/>
<path d="M35.7 32.9002L35.5 33.1002L33.2 30.7002C32.6 30.1002 32.4 29.7002 33.2 29.0002C34.4 27.9002 35.4 27.7002 36.5 28.8002C37.6 30.0002 37.6 31.1002 35.8 32.9002L36.1 33.6002C36.6 33.2002 37.1 32.9002 39.2 33.6002L41.2 34.4002C41.7 34.6002 42.1 34.8002 42.6 34.9002L45.4 32.3002L45.1 31.9002C44.1 32.7002 43 32.4002 41.9 31.9002L40.1 31.2002C39.6 31.0002 39 30.8002 38.4 30.9002C39.3 29.7002 39.8 28.1002 38.7 26.8002C37.6 25.6002 35.7 25.7002 34 27.2002L29.1 31.8002L29.4 32.2002C30.2 31.4002 30.7 31.4002 31.5 32.2002L36.6 37.7002C37.3 38.5002 37.3 39.0002 36.6 39.8002L36.9 40.2002L40.9 36.4002L40.6 36.0002C39.8 36.8002 39.3 36.8002 38.5 36.0002L36.1 33.5002L35.8 32.8002L35.7 32.9002Z" fill="black" stroke="black" stroke-width="0.2"/>
<path d="M98.5 6.90019L99.1 10.0002H98.5C97.8 8.90019 96.6 7.4002 95.1 7.2002L94.5 16.0002C94.5 17.1002 94.8 17.5002 95.9 17.5002V18.0002L90.3 17.6002V17.1002C91.5 17.1002 91.9 16.9002 91.9 15.8002L92.5 7.00019C90.9 7.00019 89.7 8.20019 88.7 9.40019L88.1 9.2002L89.1 6.2002L98.4 6.80019L98.5 6.90019Z" fill="black" stroke="black" stroke-width="0.2"/>
<path d="M98.5 6.90019L99.1 10.0002H98.5C97.8 8.90019 96.6 7.4002 95.1 7.2002L94.5 16.0002C94.5 17.1002 94.8 17.5002 95.9 17.5002V18.0002L90.3 17.6002V17.1002C91.5 17.1002 91.9 16.9002 91.9 15.8002L92.5 7.00019C90.9 7.00019 89.7 8.20019 88.7 9.40019L88.1 9.2002L89.1 6.2002L98.4 6.80019L98.5 6.90019Z" fill="black" stroke="black" stroke-width="0.2"/>
<path d="M45.2 18.1001L47.7 20.2001L47.3 20.7001C46 20.2001 44.1 19.8001 42.8 20.7001L47.9 27.9001C48.5 28.8001 49 28.9001 50 28.2001L50.3 28.6001L45.8 31.8001L45.5 31.4001C46.4 30.8001 46.5 30.2001 45.9 29.4001L40.8 22.2001C39.6 23.2001 39.3 24.9001 39.4 26.4001L38.8 26.6001L37.6 23.6001L45.2 18.3001V18.1001Z" fill="black" stroke="black" stroke-width="0.2"/>
<path d="M61.9 20.3998C62.4 21.3998 62.9 21.4998 63.9 20.9998L64.1 21.4998L59.1 23.8998L58.9 23.3998C59.9 22.8998 60.1 22.3998 59.6 21.4998L56 14.1998L57.3 24.7998L56.8 24.9998L49.4 17.7998L52.2 23.4998C53.3 25.6998 53.5 25.9998 54.9 25.4998L55.1 25.9998L51.6 27.6998L51.4 27.1998C52.5 26.3998 52.6 26.0998 51.6 23.8998L49 18.4998C48.5 17.4998 48 17.3998 47 17.8998L46.8 17.3998L50.9 15.3998L56.2 20.6998L55.4 13.1998L59.4 11.2998L59.6 11.7998C58.6 12.3998 58.4 12.6998 58.9 13.6998L62.2 20.3998H61.9Z" fill="black" stroke="black" stroke-width="0.2"/>
<path d="M65.6 20.5002C66.7 20.2002 67 19.8002 66.7 18.7002L64.8 11.5002C64.5 10.5002 64.1 10.2002 63 10.5002V10.0002L71.9 7.7002L73.6 10.3002L73.2 10.6002C71.9 9.60019 70 8.80019 68.3 9.30019C67 9.60019 67.1 10.1002 67.4 11.2002L68.2 14.1002H68.5C70 13.6002 70.6 13.2002 70.7 11.6002L71.3 11.4002L72.4 15.7002L71.8 15.9002C71 14.5002 70.1 14.3002 68.7 14.7002H68.4L69.2 18.0002C69.4 18.9002 69.7 19.4002 70.7 19.2002C72.6 18.7002 74 17.2002 74.8 15.6002H75.3L74.9 18.8002L65.8 21.1002V20.6002H65.6V20.5002Z" fill="black" stroke="black" stroke-width="0.2"/>
<path d="M85.5 14.1L85.1 8.9C85.1 7.6 84.8 6.9 83.3 6.8V6.3L87.3 6V6.5C85.9 6.9 85.8 7.5 85.9 8.8L86.6 17.4H85.2L78.2 9.2L78.7 15.1C78.7 16.8 79.1 17.1 80.7 17.3V17.8L76.4 18.2V17.7C77.8 17.4 78.1 16.9 77.9 15.4L77.3 8.3C76.8 7.8 76.1 7.5 75.5 7.4V6.9L79.4 6.6L85.5 14V14.1Z" fill="black" stroke="black" stroke-width="0.2"/>
<path d="M106.2 20.2001C109.6 21.1001 112.4 18.8001 113.3 15.8001C114.2 12.5001 112.7 9.60014 109.4 8.70014C106.1 7.80014 103.3 9.90014 102.5 13.1001C101.6 16.4001 103.1 19.3001 106.3 20.2001V19.6001C104.7 19.2001 104 17.5001 105 13.7001C106 10.1001 107.5 8.80014 109.2 9.30014C110.8 9.70014 111.6 11.3001 110.6 15.2001C110 17.2001 109 20.3001 106.3 19.6001" fill="black"/>
<path d="M106.2 20.2001C109.6 21.1001 112.4 18.8001 113.3 15.8001C114.2 12.5001 112.7 9.60014 109.4 8.70014C106.1 7.80014 103.3 9.90014 102.5 13.1001C101.6 16.4001 103.1 19.3001 106.3 20.2001V19.6001M106.3 19.6001C104.7 19.2001 104 17.5001 105 13.7001C106 10.1001 107.5 8.80014 109.2 9.30014C110.8 9.70014 111.6 11.3001 110.6 15.2001C110 17.2001 109 20.3001 106.3 19.6001Z" stroke="black" stroke-width="0.2"/>
<path d="M117.6 17.4L118.3 17.7C119.5 18.2 120.2 17.9 121.1 16.9L121.7 17.1L119.9 21.2L119.3 21C119.7 19.7 119.3 18.9 118.2 18.4L117.4 18.1L116 21.3C115.6 22.3 115.8 22.8 116.8 23.2L116.6 23.7L111.5 21.5L111.7 21C112.7 21.4 113.2 21.3 113.6 20.3L116.5 13.4C116.9 12.4 116.7 11.9 115.7 11.5L115.9 11L124.4 14.6L124 17.7H123.4C123.1 16 122.1 14.3 120.5 13.6C119.4 13.1 119.3 13.3 118.9 14.3L117.6 17.3V17.4Z" fill="black" stroke="black" stroke-width="0.2"/>
<path d="M124.3 26.8C125.2 27.4 125.7 27.4 126.4 26.5L130.7 20.4C131.3 19.5 131.2 19 130.3 18.4L130.6 18L138.3 23.4L137.4 26.3H136.9C136.9 24.5 136.2 22.6 134.7 21.6C133.6 20.8 133.3 21.2 132.6 22.1L130.9 24.6L131.1 24.8C132.4 25.7 133.1 25.9 134.4 24.8L134.9 25.1L132.3 28.8L131.8 28.5C132.4 27 131.9 26.2 130.7 25.4L130.4 25.2L128.5 27.9C128 28.6 127.7 29.2 128.6 29.8C130.2 30.9 132.2 31 134 30.5L134.2 30.9L131.6 32.6L123.9 27.2L124.2 26.8H124.3Z" fill="black" stroke="black" stroke-width="0.2"/>
<path d="M141.9 37.5001L145.5 33.8001C146.4 32.9001 146.9 32.2001 145.9 31.1001L146.3 30.7001L149.2 33.5001L148.8 33.9001C147.6 33.1001 147.1 33.4001 146.1 34.3001L140.1 40.5001L139.1 39.5001L140.8 28.8001L136.6 33.0001C135.4 34.2001 135.3 34.6001 136.2 36.0001L135.8 36.4001L132.7 33.3001L133.1 32.9001C134.3 33.8001 134.9 33.6001 135.9 32.6001L140.9 27.5001C140.9 26.8001 140.8 26.1001 140.4 25.5001L140.8 25.1001L143.6 27.9001L142 37.4001L141.9 37.5001Z" fill="black" stroke="black" stroke-width="0.2"/>
<path d="M141.6 41.3999C142.3 42.2999 142.8 42.3999 143.6 41.7999L149.6 37.2999C150.5 36.5999 150.5 36.0999 149.8 35.1999L150.2 34.8999L155.8 42.3999L154 44.8999L153.6 44.5999C154.1 42.9999 154 40.9999 153 39.5999C152.2 38.4999 151.8 38.7999 150.9 39.3999L148.5 41.1999L148.7 41.3999C149.6 42.5999 150.2 42.9999 151.8 42.4999L152.2 42.9999L148.6 45.6999L148.2 45.1999C149.2 43.8999 149 43.0999 148.2 41.8999L148 41.5999L145.4 43.4999C144.7 43.9999 144.3 44.4999 144.9 45.3999C146 46.8999 147.9 47.6999 149.8 47.7999V48.2999L146.9 49.0999L141.3 41.5999L141.7 41.2999L141.6 41.3999Z" fill="black" stroke="black" stroke-width="0.2"/>
<path d="M154.8 50.8998L157.7 49.2998C158.5 48.8998 158.8 48.6998 159.3 49.5998C160.1 51.0998 160 52.0998 158.6 52.8998C157.1 53.6998 156 53.3998 154.8 51.0998V50.7998C154.7 50.7998 154 51.0998 154 51.0998C154.3 51.6998 154.4 52.2998 153.1 53.9998L151.8 55.6998C151.5 56.0998 151.2 56.4998 151 56.8998L152.8 60.2998L153.3 60.0998C152.8 58.8998 153.3 57.9998 154 56.9998L155.1 55.4998C155.4 54.9998 155.8 54.5998 155.9 53.9998C156.8 55.1998 158.3 56.0998 159.8 55.2998C161.3 54.4998 161.7 52.6998 160.6 50.6998L157.5 44.7998L157 44.9998C157.5 45.9998 157.4 46.4998 156.4 46.9998L149.8 50.4998C148.8 50.9998 148.4 50.7998 147.8 49.7998L147.3 49.9998L149.9 54.8998L150.3 54.6998C149.8 53.6998 149.9 53.1998 150.9 52.6998L154 51.0998L154.6 50.7998H154.8V50.8998Z" fill="black"/>
<path d="M154.8 50.7998V51.0998C156 53.3998 157.1 53.6998 158.6 52.8998C160 52.0998 160.1 51.0998 159.3 49.5998C158.8 48.6998 158.5 48.8998 157.7 49.2998L154.8 50.8998V50.7998ZM154.8 50.7998C154.7 50.7998 154 51.0998 154 51.0998M154.8 50.7998H154.6L154 51.0998M154 51.0998C154.3 51.6998 154.4 52.2998 153.1 53.9998L151.8 55.6998C151.5 56.0998 151.2 56.4998 151 56.8998L152.8 60.2998L153.3 60.0998C152.8 58.8998 153.3 57.9998 154 56.9998L155.1 55.4998C155.4 54.9998 155.8 54.5998 155.9 53.9998C156.8 55.1998 158.3 56.0998 159.8 55.2998C161.3 54.4998 161.7 52.6998 160.6 50.6998L157.5 44.7998L157 44.9998C157.5 45.9998 157.4 46.4998 156.4 46.9998L149.8 50.4998C148.8 50.9998 148.4 50.7998 147.8 49.7998L147.3 49.9998L149.9 54.8998L150.3 54.6998C149.8 53.6998 149.9 53.1998 150.9 52.6998L154 51.0998Z" stroke="black" stroke-width="0.2"/>
<path d="M163.7 66.5L163.4 66.1C164.7 64.2 165.3 62.9 164.9 61.6C164.4 60.2 162.6 59.2 158.8 60.5C155.1 61.8 154.1 63.4 154.7 65C155.3 66.6 156.5 66.5 157.9 66C159.1 65.6 159.1 65.2 158.8 64.1L159.4 63.9L161.1 68.9L160.5 69.1C159.9 67.9 159.6 67.9 158.5 68.3L156.3 69C155.9 68 155.9 67.9 155.3 67.1C154.8 66.4 154.4 65.8 154.1 65C153 61.9 154.5 59.2 157.6 58.1C160.6 57.1 164.3 58.1 165.4 61.3C165.5 61.7 165.6 62.1 165.6 62.5V63.5C165.7 63.9 166.1 64.3 166.5 64.6L163.7 66.6V66.5Z" fill="black" stroke="black" stroke-width="0.2"/>
<path d="M167.9 71.8001H167.4C167.2 71.1001 167 71.0001 166.6 71.0001C166.2 71.0001 166.2 71.2001 166 71.4001L163 74.1001L166.2 75.3001C166.5 75.3001 166.9 75.5001 167.2 75.5001C167.9 75.5001 167.8 74.7001 167.8 74.1001H168.3L169.1 78.1001H168.6C168.3 77.1001 167.8 76.8001 166.8 76.4001L166.4 76.2001L162.4 74.6001L159 75.2001C158 75.4001 157.7 75.8001 157.9 77.0001H157.4L156.4 71.6001H156.9C157.2 72.5001 157.3 73.0001 158.6 72.7001L161.5 72.1001L165.7 68.3001C166.3 67.7001 166.5 67.4001 166.5 66.6001H167L168 71.8001H167.9Z" fill="black" stroke="black" stroke-width="0.2"/>
<path d="M22.3 134.6C23 135.5 23.5 135.5 24.3 134.9L30.1 130.2C30.9 129.5 31 129 30.3 128.1L30.7 127.8L36.6 135L35 137.6L34.5 137.4C34.9 135.8 34.8 133.8 33.6 132.4C32.7 131.3 32.4 131.6 31.5 132.4L29.2 134.3L29.4 134.5C30.4 135.7 31 136.1 32.6 135.5L33 136L29.5 138.8L29.1 138.3C30.1 137 29.8 136.1 28.9 135L28.7 134.7L26.2 136.8C25.5 137.4 25.1 137.8 25.8 138.7C27 140.2 29 140.8 30.8 140.9V141.4L27.9 142.3L22 135.1L22.4 134.8V134.6H22.3Z" fill="black" stroke="black" stroke-width="0.2"/>
<path d="M34.3 147.6C33.3 146.7 33.5 146.4 34.3 145.6L39.1 140.2C39.8 139.5 40.1 139.1 40.9 139.9C42.5 141.3 42.9 143 40.4 145.8C37.6 149 35.8 148.8 34.3 147.6L33.9 148C34.6 148.7 35.4 149.2 36.2 149.5C38.1 150.2 40.5 149.8 42.2 147.9C44 145.8 44.2 143.5 43.2 141.6C42.8 140.8 42.2 140.2 41.5 139.5L37.5 135.9L37.2 136.3C38 137 38.1 137.6 37.4 138.4L32.4 144C31.7 144.8 31.2 144.8 30.3 144L30 144.4L34 148L34.4 147.6H34.3Z" fill="black"/>
<path d="M34.3 147.6C33.3 146.7 33.5 146.4 34.3 145.6L39.1 140.2C39.8 139.5 40.1 139.1 40.9 139.9C42.5 141.3 42.9 143 40.4 145.8C37.6 149 35.8 148.8 34.3 147.6ZM34.3 147.6L33.9 148C34.6 148.7 35.4 149.2 36.2 149.5C38.1 150.2 40.5 149.8 42.2 147.9C44 145.8 44.2 143.5 43.2 141.6C42.8 140.8 42.2 140.2 41.5 139.5L37.5 135.9L37.2 136.3C38 137 38.1 137.6 37.4 138.4L32.4 144C31.7 144.8 31.2 144.8 30.3 144L30 144.4L34 148L34.4 147.6H34.3Z" stroke="black" stroke-width="0.2"/>
<path d="M53.3 151.7H52.7C52.7 150.1 52.2 147.9 50.9 147.1C50 146.5 49 146.6 48.4 147.5C47.7 148.6 48.7 149.6 49.4 150.4L50 151.1C51.3 152.6 52.4 154.3 51.2 156.3C50.1 158.1 47.8 158.4 46.1 157.4C45.5 157.1 45.1 156.6 44.6 156.1C44.4 155.9 44.3 155.7 44 155.5C43.8 155.4 43.6 155.3 42.6 155.2L43.6 151.6H44.2C44.2 153.5 44.6 155.7 46.2 156.7C47.1 157.3 48.5 157.2 49.2 156.2C49.9 155.1 49 154.1 48.3 153.4C46.9 151.8 45.1 149.7 46.5 147.5C47.5 145.8 49.6 145.5 51.2 146.5C51.7 146.8 52.1 147.2 52.5 147.7C52.7 147.9 52.8 148.1 53 148.2C53.3 148.4 53.9 148.4 54.3 148.3L53.4 151.7H53.3Z" fill="black" stroke="black" stroke-width="0.2"/>
<path d="M64.4 153.5L63.9 156.7H63.3C63.1 155.3 62.4 153.4 61.1 152.7L57.6 160.8C57.2 161.8 57.4 162.3 58.4 162.7L58.2 163.2L53.1 161L53.3 160.5C54.3 160.9 54.8 160.8 55.2 159.8L58.7 151.7C57.2 151.3 55.6 151.9 54.4 152.7L53.9 152.3L55.8 149.8L64.3 153.5H64.4Z" fill="black" stroke="black" stroke-width="0.2"/>
<path d="M64.3 160.4L67.5 156.1V161.3L64.3 160.3L63.8 160.9L67.6 162V164.8C67.6 165.2 67.2 165.4 66.2 165.1L66 165.6L71.2 167.1V166.6C70 166.2 70.1 165.4 70.1 164.2L69.9 154.5H67.5L62.3 161.4C61.5 162.5 61 163.1 59.5 163.1V163.6L63.3 164.8V164.3C62.8 164.1 62.2 163.6 62.4 162.8C62.4 162.4 62.8 162 63.1 161.6L63.7 160.8L64.2 160.2V160.4H64.3Z" fill="black" stroke="black" stroke-width="0.2"/>
<path d="M83.1 168.3C84.2 168.3 84.6 168 84.6 166.9V159.4C84.6 158.3 84.2 158 83.1 158V157.5H92.4L93.4 160.4L92.9 160.6C91.9 159.2 90.2 158.1 88.5 158.1C86.8 158.1 87.1 158.6 87.1 159.7V162.7H87.4C89 162.7 89.6 162.4 90.2 160.9H90.8V165.4H90.2C89.8 163.8 89 163.5 87.5 163.5H87.2V166.8C87.2 167.7 87.2 168.3 88.4 168.3C90.3 168.3 92.1 167.2 93.3 165.8L93.7 166L92.5 168.9H83.2V168.4H83.1V168.3Z" fill="black" stroke="black" stroke-width="0.2"/>
<path d="M102.4 159.2L101.8 159.5C100.9 158.4 99.0999 157 97.5999 157.2C96.4999 157.3 95.7999 158 95.8999 159.1C96.0999 160.4 97.4999 160.5 98.4999 160.7L99.3999 160.9C101.4 161.3 103.3 161.9 103.7 164.1C104 166.2 102.5 167.9 100.4 168.2C99.6999 168.3 99.0999 168.2 98.3999 168.2C97.6999 168.2 97.8999 168.1 97.5999 168.2C97.2999 168.2 97.1999 168.2 96.2999 168.9L94.7999 165.5L95.3999 165.2C96.4999 166.5 98.1999 168 100.1 167.8C101.2 167.7 102.2 166.7 102.1 165.5C101.9 164.2 100.6 164 99.5999 163.9C97.4999 163.5 94.7999 163.1 94.3999 160.5C94.0999 158.6 95.4999 157 97.3999 156.8H99.0999C99.2999 156.8 99.4999 156.9 99.7999 156.8C100.2 156.8 100.7 156.4 100.9 156.1L102.4 159.3V159.2Z" fill="black" stroke="black" stroke-width="0.2"/>
<path d="M114.2 164.9C117.6 163.8 118.6 160.3 117.6 157.3C116.5 154.1 113.7 152.4 110.4 153.6C107.1 154.7 106 158 107.1 161.1C108.2 164.3 111 165.9 114.2 164.9L113.9 164.3C112.3 164.8 110.8 163.8 109.6 160.1C108.4 156.5 109 154.7 110.7 154.1C112.3 153.6 113.8 154.5 115.1 158.3C115.8 160.3 116.6 163.4 113.9 164.4" fill="black"/>
<path d="M114.2 164.9C117.6 163.8 118.6 160.3 117.6 157.3C116.5 154.1 113.7 152.4 110.4 153.6C107.1 154.7 106 158 107.1 161.1C108.2 164.3 111 165.9 114.2 164.9ZM114.2 164.9L113.9 164.3C112.3 164.8 110.8 163.8 109.6 160.1C108.4 156.5 109 154.7 110.7 154.1C112.3 153.6 113.8 154.5 115.1 158.3C115.8 160.3 116.6 163.4 113.9 164.4" stroke="black" stroke-width="0.2"/>
<path d="M148.7 139.2C149.5 140 150 139.9 150.8 139.2L151.2 139.6L147.3 143.5L146.9 143.1C147.7 142.3 147.7 141.8 146.9 141L141.1 135.3L145.8 144.9L145.4 145.3L136 141L140.5 145.4C142.3 147.1 142.6 147.3 143.7 146.4L144.1 146.8L141.3 149.6L140.9 149.2C141.7 148 141.7 147.8 139.9 146L135.7 141.8C134.9 141 134.3 141.1 133.6 141.8L133.2 141.4L136.4 138.2L143.2 141.4L139.9 134.6L143 131.5L143.4 131.9C142.7 132.8 142.5 133.1 143.4 134L148.7 139.2Z" fill="black" stroke="black" stroke-width="0.2"/>
<path d="M152.6 136.7C153.2 135.8 153.2 135.3 152.2 134.6L146 130.4C145.1 129.8 144.6 129.9 144 130.8L143.6 130.5L148.8 122.7L151.8 123.5V124C150 124.1 148.1 124.8 147.2 126.3C146.4 127.4 146.8 127.7 147.8 128.4L150.3 130.1L150.5 129.8C151.4 128.5 151.5 127.8 150.5 126.5L150.8 126L154.5 128.5L154.2 129C152.7 128.5 151.9 129 151.1 130.2L150.9 130.5L153.6 132.3C154.4 132.8 154.9 133.1 155.5 132.2C156.6 130.6 156.6 128.6 156.1 126.8L156.5 126.6L158.3 129.2L153.1 137L152.7 136.7H152.6Z" fill="black" stroke="black" stroke-width="0.2"/>
<path d="M156.7 120.5L159.8 122C160.8 122.5 161.3 122.2 161.7 121.2L162.2 121.4L159.9 126.4L159.4 126.2C159.9 125.2 159.7 124.7 158.7 124.2L151.9 121.1C150.9 120.7 150.4 120.9 150 121.9L149.5 121.7L152.3 115.6C153.3 113.5 155 112.7 156.5 113.5C158.1 114.2 158.1 115.9 157.8 117.4C158.3 117.1 158.9 117.1 159.5 117.1H161.4C162.6 117 163.7 116.9 164.3 115.7L164.8 115.9L163.2 119.4H159.6C157.5 119.4 157 119.9 156.7 120.4L156 120.1V119.8C157.2 117.5 156.8 116.4 155.3 115.7C153.9 115 153 115.7 152.3 117.1C151.9 118 152.3 118.2 153 118.6L156 120L156.7 120.3V120.5Z" fill="black" stroke="black" stroke-width="0.2"/>
<path d="M156.5 110.4C155.5 110.1 155 110.4 154.7 111.4H154.2C154.2 111.3 155.9 106 155.9 106L156.4 106.2C156.1 107.3 156.3 107.7 157.3 108.1L164.4 110.4C165.4 110.7 165.9 110.4 166.2 109.4H166.7C166.7 109.5 165 114.8 165 114.8L164.5 114.6C164.8 113.5 164.6 113.1 163.6 112.7L156.5 110.4Z" fill="black" stroke="black" stroke-width="0.2"/>
<path d="M161 97.3999V98.0999C159.5 98.4999 157.6 99.3999 157.3 101.1C156.8 103.4 159.6 104.5 161.4 104.9C165.1 105.7 167 104.2 167.3 102.5C167.6 101 166.8 99.7999 165.8 98.7999L166.2 98.4999C167.8 99.8999 168.7 101.6 168.3 103.8C167.7 106.8 164.7 108.4 161.8 107.8C158.6 107.1 156 104.4 156.7 101.2C156.8 100.6 157 100.2 157.2 99.8999C157.4 99.5999 157.6 99.1999 157.6 98.9999C157.6 98.5999 157.6 98.1999 157.5 97.7999V97.5999L161 97.3999Z" fill="black" stroke="black" stroke-width="0.2"/>
<path d="M164.6 95.3999L159.8 93.1999L164.9 91.9999L164.7 95.3999L165.4 95.7999L165.7 91.8999L167.6 91.4999H168.5C169 91.4999 169.1 91.7999 169.1 92.7999H169.6L170 87.3999H169.5C169.4 88.6999 168.6 88.7999 167.4 89.0999L157.9 91.2999L158.5 93.5999L166.3 97.1999C167.5 97.7999 168.3 98.0999 168.6 99.5999H169.1L169.4 95.4999H168.9C168.9 96.0999 168.5 96.7999 167.7 96.7999C166.9 96.7999 166.8 96.5999 166.4 96.3999L165.5 95.9999L164.8 95.5999H164.6V95.3999Z" fill="black" stroke="black" stroke-width="0.2"/>
<path d="M122.5 158.6L122.3 158.2" stroke="black" stroke-width="0.2"/>
<path d="M120.2 159.7L120.4 160.2Z" fill="black"/>
<path d="M120.2 159.7L120.4 160.2" stroke="black" stroke-width="0.2"/>
<path d="M123.9 160.6L124.9 160.1L124.8 159.9" fill="black"/>
<path d="M123.9 160.6L124.9 160.1L124.8 159.9" stroke="black" stroke-width="0.2"/>
<path d="M130.4 157.3L133.8 154.9L133.6 154.7C132.5 155.5 131.4 156.3 130.3 157.1V157.3H130.4Z" fill="black" stroke="black" stroke-width="0.2"/>
<path d="M140.4 150.2V150C139.5 150.6 138.8 151.3 138 151.9L140.4 150.2Z" fill="black" stroke="black" stroke-width="0.2"/>
<path d="M139.4 145.4L139.7 145.8Z" fill="black"/>
<path d="M139.4 145.4L139.7 145.8" stroke="black" stroke-width="0.2"/>
<path d="M140.3 145.2L139.9 144.9" stroke="black" stroke-width="0.2"/>
<path d="M18.1 89.5998L18 88.7998" stroke="black" stroke-width="0.2"/>
<path d="M14.5999 83.4002C14.5999 84.6002 13.6 85.6002 12.4 85.6002C11.1999 85.6002 10.2 84.6002 10.2 83.4002C10.2 82.2002 11.1999 81.2002 12.4 81.2002C13.6 81.2002 14.5999 82.2002 14.5999 83.4002Z" fill="black"/>
<path d="M166 83.4998C166 84.6998 165 85.6998 163.8 85.6998C162.6 85.6998 161.6 84.6998 161.6 83.4998C161.6 82.2998 162.6 81.2998 163.8 81.2998C165 81.2998 166 82.2998 166 83.4998Z" fill="black"/>
<path d="M82.9 33.9999C82.6 33.4999 82.2 33.1999 81.8 33.2999C81.8 33.2999 81.6 33.2999 81.6 33.5999C81.6 33.8999 81.6 34.1999 81.8 34.5999C82.1 35.0999 82.6 35.3999 82.9 35.2999C82.9 35.2999 83.1 35.2999 83.1 34.9999C83.1 34.6999 83.1 34.3999 82.9 33.9999ZM82.6 34.7999C82.4 34.7999 82.2 34.7999 82 34.3999V34.1999C82 34.3999 82.3 34.4999 82.5 34.4999H82.7V34.7999H82.6Z" fill="black"/>
<path d="M80 56.5998C80 56.5998 80.4 55.2998 80.8 54.7998C80.8 54.7998 79.7 55.3998 80 56.5998Z" fill="black" stroke="black" stroke-width="0.2"/>
<path d="M87.6 57.6001C87.6 57.6001 88.3 55.3001 88.9 54.6001L87.6 57.6001Z" fill="black" stroke="black" stroke-width="0.2"/>
<path d="M88.7 33.3002C88.3 33.1002 87.9 32.8002 87.4 32.7002H85.3C84.7 32.9002 84.4 32.7002 84.1 32.9002H83.8C83.8 32.9002 83.5 32.9002 83.8 33.4002C83.8 33.4002 84 33.4002 84.1 33.6002C84.1 33.6002 84.3 33.8002 84.4 34.0002C84.4 34.2002 84.7 34.4002 84.9 34.5002C85.1 34.7002 85.3 34.8002 85.6 34.9002C86.4 35.1002 86.8 34.9002 87.7 34.2002C88 34.0002 88.5 33.8002 89.2 33.8002H90.4C90.4 33.8002 89.4 33.4002 88.6 33.3002H88.4H88.7ZM86.4 34.4002C85.4 34.4002 85.2 33.2002 85.2 33.2002C85.2 33.2002 85.4 33.0002 86.4 33.0002C87.4 33.0002 87.6 33.2002 87.6 33.2002C87.6 33.2002 87.4 34.3002 86.4 34.4002ZM103.2 55.9002C102.7 55.0002 102.1 54.3002 101.5 53.7002C100.3 52.4002 99 51.1002 98.3 46.7002C98.3 44.5002 98 41.8002 97.6 39.3002C97.3 37.4002 97 35.7002 97.2 34.9002C97.2 34.1002 93.3 31.3002 89 30.6002C87.7 30.4002 86.8 30.4002 86 30.6002C83.9 30.8002 83.3 31.9002 83.1 32.6002C82.2 32.6002 81.4 32.6002 80.9 32.8002H80.2C77.9 33.3002 76.4 34.4002 75.9 35.8002C75.5 37.0002 75.9 38.3002 76.8 39.6002L77.1 40.0002V38.7002C77.1 38.7002 77.5 38.4002 78.2 38.2002C79.8 38.0002 82.1 38.2002 83.4 39.0002C83.8 39.4002 84.2 39.8002 84.5 40.3002C86.2 43.3002 85 48.2002 83.6 49.4002L82.9 50.0002C81.5 51.3002 80.5 52.2002 78.9 54.6002L78.4 55.3002C77.5 56.8002 77.2 57.1002 76.2 57.5002C76 57.5002 75.8 57.7002 75.6 57.7002C75.4 57.7002 75.2 57.9002 74.9 57.9002V58.2002H75.2C75.8 58.2002 76.3 58.2002 76.8 58.0002H77.5C78.3 58.0002 79.1 57.7002 79.9 57.2002C79.9 57.8002 80.3 58.3002 80.6 58.4002H81.7C81.7 58.2002 82 58.0002 82.2 57.8002C82 58.4002 82.2 58.9002 82.4 59.1002C82.4 59.1002 82.7 58.8002 83.1 58.7002C83.8 58.3002 84.7 57.7002 85.3 56.8002C85.3 57.7002 85.7 58.5002 86.7 58.9002C88.5 58.3002 90.7 57.3002 91.6 56.1002C92.5 57.3002 94.5 57.9002 95.4 57.8002H95.7C96 57.4002 95.9 57.0002 95.7 56.6002C97.2 57.5002 99.1 57.7002 100.7 57.7002H102.4V57.5002C102.4 57.5002 102.4 56.5002 102.2 55.8002L102.7 56.1002L103.2 55.9002ZM84.1 36.0002C82.3 35.4002 82 34.8002 81.8 34.6002C81.6 34.4002 81.1 33.0002 80.7 32.8002C80.7 32.8002 81 32.5002 83.3 32.5002C83.3 32.5002 83.7 34.4002 84.1 35.2002C84.5 36.0002 85 36.4002 84.1 36.0002ZM95 54.0002C95 55.1002 95.8 56.2002 96.3 57.1002C95.6 56.8002 92.5 57.5002 92.2 52.5002C92 55.5002 88.8 58.4002 87.2 58.6002C85.1 56.9002 87 54.6002 85.9 55.7002C85 56.9002 82.9 58.2002 82.6 58.4002C82.4 58.2002 82.6 57.6002 83.4 56.6002C83.4 55.6002 82.1 55.9002 81.5 57.4002C81.5 57.4002 81.2 58.1002 80.9 58.2002C80.7 58.2002 80.2 58.2002 80 56.9002C78.8 57.7002 76.8 58.1002 75.7 58.1002C78.2 57.2002 78.4 56.6002 80.1 54.0002C81.8 51.4002 82.7 50.8002 84.4 49.2002C85.6 48.1002 87.2 44.0002 86.1 40.8002C85.9 40.3002 85.3 39.0002 85 38.6002C86 38.4002 87.2 38.4002 87.3 38.3002H87.5C87.5 37.8002 85.7 37.2002 85.2 36.5002C84.5 35.5002 84.1 34.4002 83.8 33.2002C84.1 32.5002 84.7 30.4002 88.9 31.2002C92.8 31.9002 95.7 35.2002 96.6 36.0002C96.6 37.7002 97.3 45.0002 97.4 46.4002C97.6 47.4002 97.9 49.2002 98.3 50.4002C98.5 52.2002 100.8 54.4002 102 55.8002C102.4 56.3002 102.6 56.7002 102.6 56.7002C99.1 57.5002 96.3 55.5002 95.2 54.1002H95V54.0002ZM85.8 33.2002C85.8 33.2002 85.8 33.9002 86.3 34.0002C86.9 34.0002 87 33.5002 86.9 33.2002C86.9 33.2002 86.3 33.0002 85.8 33.2002Z" fill="black"/>
<path d="M119.2 67.8999H56.4V103.4C56.4 103.4 55.8 117.7 63.8 128.6C70.8 138.2 88.1 147.6 88.1 147.6C88.1 147.6 104.7 138 111.7 128.4C120 117 119.1 103.4 119.1 103.4V67.8999H119.2ZM108.4 125.7C100.3 136.2 87.8 143.5 87.8 143.5C87.8 143.5 77.5 137.5 70.3 129.5C63.3 121.6 61.8 115.8 60.9 109.3C60.5 106.2 60.5 103.4 60.5 103.4V71.2999H114.5L87.2 96.8999L90.4 97.4999L80.3 110.6L83.8 111.1L72.2 128.4L92.7 108.3L88.6 107.7L102.5 93.3999L100.1 92.6999L115 78.6999V103.2C115 103.2 115.8 116.1 108.3 125.7H108.4Z" fill="black"/>
<path d="M70.4 79.3998C70.2 79.1998 69.8 78.5998 70 77.9998C70.2 77.3998 70.2 76.9998 70 76.4998C70.3 76.4998 70.8 77.4998 70.8 78.0998C70.8 78.6998 71.1 78.7998 71.4 78.9998L71.9 76.2998L72.5 79.0998C72.5 79.0998 72.5 78.1998 73.2 77.8998C73.8 77.5998 74 77.2998 74.2 76.7998C74.2 76.9998 74.2 78.0998 73.7 78.4998C73.2 78.8998 73.5 79.5998 73.5 79.5998L75.8 77.9998L74.2 80.3998C74.2 80.3998 74.9 79.7998 75.5 79.8998C76.1 80.0998 76.5 80.0998 77 79.8998C77 80.1998 76.5 80.6998 75.6 80.7998C74.7 80.7998 74.5 81.3998 74.5 81.3998L77.2 81.9998L74.5 82.5998C74.5 82.5998 75.6 82.7998 75.8 83.2998C76 83.7998 76.4 84.0998 76.9 84.3998C76.7 84.3998 75.7 84.3998 75.2 83.8998C74.7 83.3998 74.1 83.5998 74.1 83.5998L75.7 85.8998L73.3 84.2998C73.5 84.2998 73.9 85.1998 73.7 85.6998C73.5 86.1998 73.5 86.6998 73.7 87.1998C73.4 87.1998 72.9 86.4998 72.9 85.6998C72.9 84.8998 72.5 84.8998 72.3 84.7998L71.7 87.4998L71.1 84.6998C71.1 84.6998 71.1 85.4998 70.4 85.8998C69.8 86.2998 69.6 86.4998 69.3 86.9998C69.3 86.7998 69.3 85.8998 69.8 85.2998C70.3 84.6998 70.1 84.1998 70.1 84.1998L67.7 85.8998L69.3 83.4998C69.3 83.4998 68.5 83.8998 68 83.7998C67.5 83.6998 67 83.5998 66.5 83.7998C66.5 83.4998 67.3 82.9998 68 82.9998C68.7 82.9998 68.7 82.7998 69 82.4998L66.3 81.8998L69.1 81.2998C69.1 81.2998 68.1 81.0998 67.8 80.5998C67.5 80.0998 67.2 79.7998 66.6 79.5998C66.8 79.5998 67.9 79.5998 68.3 79.9998C68.7 80.3998 69.3 80.1998 69.3 80.1998L67.8 77.8998L70.2 79.5998L70.4 79.3998Z" fill="black"/>
<path d="M97.4 114.2H106.8" stroke="black" stroke-width="0.2" stroke-linecap="round" stroke-linejoin="round"/>
<path d="M104.8 114.2L104.3 105.6H100.4L99.8 114.1M100.8 105.6L100.2 114.1M103.8 105.7L104.4 114.2M102.3 105.7V114.1M100.8 106.8H103.9M100.7 107.3H103.9M100.4 112.6H104.2M100.4 113.1H104.4M100.1 105.3H104.5M100.3 105.3H104.7M100.2 105.3H104.6" stroke="black" stroke-width="0.2" stroke-linecap="round" stroke-linejoin="round"/>
<path d="M102.2 97.6001H102.7L102.4 99.9001L102.2 97.6001Z" fill="black"/>
<path d="M102.2 105.2H102.8L102.5 102.9L102.2 105.2Z" fill="black"/>
<path d="M106.2 101.1V101.6L103.9 101.3L106.2 101.1Z" fill="black"/>
<path d="M98.7 101.1V101.6L101.1 101.4L98.7 101.1Z" fill="black"/>
<path d="M104.8 98.3999L105.2 98.7999L103.4 100.4L104.8 98.3999Z" fill="black"/>
<path d="M99.7 103.9L100 104.3L101.5 102.5L99.7 103.9Z" fill="black"/>
<path d="M105.4 103.8L105 104.2L103.5 102.3L105.4 103.8Z" fill="black"/>
<path d="M99.9 98.6001L99.6 98.9001L101.5 100.5L99.9 98.6001Z" fill="black"/>
<path d="M100.8 98.0003L101.2 97.8003L101.9 100.1L100.8 98.0003Z" fill="black"/>
<path d="M103.7 105L104.2 104.8L103.1 102.7L103.7 105Z" fill="black"/>
<path d="M105.8 99.7002L106 100.2L103.8 100.8L105.8 99.7002Z" fill="black"/>
<path d="M99 102.6L99.2 103.1L101.2 102L99 102.6Z" fill="black"/>
<path d="M103.5 97.8003L104 98.0003L103 100.1L103.5 97.8003Z" fill="black"/>
<path d="M100.9 104.8L101.4 105L102 102.8L100.9 104.8Z" fill="black"/>
<path d="M106.1 102.5L105.9 103L103.8 101.8L106.1 102.5Z" fill="black"/>
<path d="M98.9999 99.7002L98.7999 100.2L101.2 101L98.9999 99.7002Z" fill="black"/>
<path d="M100.9 99.4003L101.1 99.3003L101.7 100.2L100.9 99.4003Z" fill="black"/>
<path d="M103.9 99.4002L103.8 99.2002L103.3 100.2L103.9 99.4002Z" fill="black"/>
<path d="M100.3 100.2L100.4 100L101.3 100.7L100.3 100.2Z" fill="black"/>
<path d="M103 98.9999L102.8 98.8999L102.7 99.9999L103 98.9999Z" fill="black"/>
<path d="M100 101V100.9L101.1 101.2L100 101Z" fill="black"/>
<path d="M102.1 99H101.9L102.2 99.9L102.1 99Z" fill="black"/>
<path d="M100.1 101.8V101.9L101.1 101.7L100.1 101.8Z" fill="black"/>
<path d="M103.1 103.8H102.9L102.8 102.8L103.1 103.8Z" fill="black"/>
<path d="M100.4 102.7L100.5 102.8L101.3 102.3L100.4 102.7Z" fill="black"/>
<path d="M101.1 103.4L101.2 103.5L101.8 102.7L101.1 103.4Z" fill="black"/>
<path d="M101.9 103.8H102.1L102.2 102.8L101.9 103.8Z" fill="black"/>
<path d="M104.9 101.9L105 101.7L103.9 101.6L104.9 101.9Z" fill="black"/>
<path d="M104.6 100.1L104.5 99.8999L103.7 100.5L104.6 100.1Z" fill="black"/>
<path d="M104.9 100.7V100.9L103.9 101.1L104.9 100.7Z" fill="black"/>
<path d="M104.7 102.6L104.6 102.8L103.7 102.1L104.7 102.6Z" fill="black"/>
<path d="M104 103.4L103.9 103.5L103.4 102.6L104 103.4Z" fill="black"/>
<path d="M102.5 101.8C102.7 101.8 102.9 101.6 102.9 101.4C102.9 101.2 102.7 101 102.5 101C102.3 101 102.1 101.2 102.1 101.4C102.1 101.6 102.3 101.8 102.5 101.8Z" fill="black"/>
<path d="M102.2 100.8C102.5 100.6 102.7 100.8 102.7 100.8V100.3C102.5 100.1 102.3 100.3 102.1 100.3L102.3 100.9L102.2 100.8Z" fill="black"/>
<path d="M102.3 102C102.5 102.2 102.8 102 102.8 102V102.5C102.6 102.7 102.4 102.5 102.2 102.5V102H102.3Z" fill="black"/>
<path d="M102 101.6C101.8 101.4 102 101.2 102 101.2H101.5C101.3 101.2 101.5 101.6 101.5 101.8L102.1 101.6H102Z" fill="black"/>
<path d="M103 101.6C103.2 101.3 103 101.2 103 101.2H103.6C103.8 101.4 103.6 101.6 103.6 101.8L103 101.6Z" fill="black"/>
<path d="M102.1 100.9H101.6C101.6 100.7 101.8 100.6 101.9 100.5L102.2 101H102.1V100.9Z" fill="black"/>
<path d="M102.8 100.9H103.3C103.3 100.7 103.1 100.5 102.9 100.5L102.7 101L102.8 100.9Z" fill="black"/>
<path d="M102.9 101.9H103.4C103.4 102.1 103.2 102.3 103 102.3L102.8 101.8L102.9 101.9Z" fill="black"/>
<path d="M102.1 101.9H101.6C101.6 102.2 101.8 102.3 102 102.4L102.2 101.9H102.1Z" fill="black"/>
<path d="M106.4 101.4V102.5L109.9 103.2V100.9L106.4 101.4Z" fill="black"/>
<path d="M106.4 102.6L109.9 103.4V103.6L106.4 102.7V102.6Z" fill="black"/>
<path d="M106.4 101.3L109.9 100.7V100.5L106.4 101.2V101.3Z" fill="black"/>
<path d="M72.9 102.4L73.2 101.6M71.3 102.4L71 101.6M69.9 108.8H74.4M70.1 105.1H74M70.3 102.8H73.9M72.8 99.6001L73.3 97.9001L72.1 96.7001L70.8 98.0001L71.3 99.6001M72.6 97.3001L73.2 96.2001L72.1 95.1001L70.9 96.4001L71.5 97.2001M72.5 95.7001L72.7 95.2001M71.5 95.7001L71.3 95.2001M70.6 99.7001H73.4M70.8 97.4001H73.3M70.9 95.9001H73.2M70.4 101.7H73.8L74.6 111.1L72.1 106.6L69.7 111.1L70.4 101.8V101.7ZM70.9 95.1001H73.1L73.6 101.1L72.1 98.2001L70.5 101L70.9 95.1001Z" stroke="black" stroke-width="0.2" stroke-linecap="round" stroke-linejoin="round"/>
<path d="M70.9 95.4003L71 95.1003H73L73.1 95.5003L73.3 94.8003H70.7L70.9 95.4003Z" stroke="black" stroke-width="0.1" stroke-linecap="round" stroke-linejoin="round"/>
<path d="M71.8 106.8V101.6M71.8 101.2V95.3002M72.3 106.8V101.7M72.3 101.2V95.2002M73.5 111V112.5H76.4V110.9H69.7V112.5M73.3 108.6L74.1 106.1L72 104.1L70 106.1C70.9 108.1 70.7 107.7 71.1 108.7C71.4 109.5 70.6 109.8 70.8 109.8C71.2 109.8 71.2 109.2 71.9 109.2" stroke="black" stroke-width="0.2" stroke-linecap="round" stroke-linejoin="round"/>
<path d="M74.5 111L74.7 112.5" stroke="black" stroke-width="0.2" stroke-linecap="round" stroke-linejoin="round"/>
<path d="M69 112.5H73.5" stroke="black" stroke-width="0.2" stroke-linecap="round" stroke-linejoin="round"/>
<path d="M72.1 106.5V109.1L72.3 109.2V112.4H71.8V109.2L72.1 109.1V106.5Z" fill="black" stroke="black" stroke-width="0.1"/>
<path d="M68.5 112.2L68.8 112H70.5L68.8 111.8L68.5 112.2Z" fill="black"/>
<path d="M69.9 112.4C69.7 112.3 69.9 111.9 69.9 111.7C70.1 111.7 70.3 111.4 70.3 111.2V110.7C70.3 110.7 70.3 110.5 70.5 110.5C70.5 110.8 70.5 111.2 70.7 111.4C70.7 111.5 70.9 111.7 71.1 111.8V112.2C71.1 112.2 70.9 112.4 71.1 112.5C70.8 112.5 70.4 112.5 70.2 112.4H69.9Z" fill="black"/>
<path d="M71.2 112.5V112.3H71.6C71.8 112.3 71.9 112.2 72 112.2C72.1 112.2 72.5 112.2 72.6 112.4H73.6C73.4 112.5 72.9 112.5 72.9 112.5H71.2Z" fill="black"/>
<path d="M70 106.8H74.1M72.4 106.8L73.9 103.5L72.1 101.6L70.3 103.5L71.7 106.8" stroke="black" stroke-width="0.2" stroke-linecap="round" stroke-linejoin="round"/>
<path d="M70.3 101.9L70.4 101.6H73.8V102L74 101.2H70.2L70.3 101.9Z" stroke="black" stroke-width="0.1" stroke-linecap="round" stroke-linejoin="round"/>
<path d="M94 118.8V119L95 119.2L95.1 119.1L94 118.8Z" stroke="black" stroke-width="0.1"/>
<path d="M93.9 119.9V120.1H95C95 120 93.9 120 93.9 120V119.9ZM94 120.4V120.6L95 120.4V120.2L93.9 120.4H94Z" stroke="black" stroke-width="0.1"/>
<path d="M85.1 125.6L97.7 126.7V124.6L85.1 123.5V125.6Z" stroke="black" stroke-width="0.1" stroke-linecap="round" stroke-linejoin="round"/>
<path d="M85.1 125.3L89.4 125.6M89.3 124.2L85.1 123.9M87.5 123V119.8C87.5 118.4 87.5 116.8 88.2 116C88.6 115.5 89.6 115.2 90.1 115.2C90.4 114.3 92.2 114.4 92.2 114.4C92.5 114.6 92.6 114.3 92.9 115C92.9 115 93.8 115.2 94.1 116.1C94.7 116.5 95.5 117.6 95.6 118.3C96.4 119.2 96.4 119.9 95.8 120.9C95.8 120.9 95.6 121.2 95.5 121.3V122.1" stroke="black" stroke-width="0.1" stroke-linecap="round" stroke-linejoin="round"/>
<path d="M96 119.4V119.9H99.3C99.5 119.6 99.3 119.4 99.3 119.4H96ZM98 123.3V122.3L95.6 122.1V123L98 123.3ZM97.9 122.3L98.3 120.2V121.8L97.9 123.3V122.3Z" stroke="black" stroke-width="0.1" stroke-linecap="round" stroke-linejoin="round"/>
<path d="M95.6 122.1L96.4 120.1L98.4 120.2" stroke="black" stroke-width="0.1" stroke-linecap="round" stroke-linejoin="round"/>
<path d="M90 115.2C89.4 115.8 89.2 117.6 89.2 119.2V122.1M92.2 114.6C91.8 115.1 90.4 117.8 92 123.4" stroke="black" stroke-width="0.1" stroke-linecap="round" stroke-linejoin="round"/>
<path d="M95.5 118.7C95.5 118.9 95.3 120.7 95.5 120.9C96 120.4 96.3 119.4 95.5 118.7Z" stroke="black" stroke-width="0.1"/>
<path d="M85.1 123.5L86.7 122.2H87.6V121.9M86.7 119.9L87.1 119.3H85.3C85.1 119.3 85.1 120.2 85.3 120.4H86.9V120M86.9 120H87.6M86.9 120V122.1" stroke="black" stroke-width="0.1" stroke-linecap="round" stroke-linejoin="round"/>
<path d="M85.1 119.6H85.8M87.4 119.3H87.1M87.7 117.2C88.3 117 89.4 117 89.4 117" stroke="black" stroke-width="0.1" stroke-linecap="round" stroke-linejoin="round"/>
<path d="M93.4 123.9L94.6 123L95.3 122.5H95.5V123.1H96.1L95.3 124L93.4 123.9Z" stroke="black" stroke-width="0.1"/>
<path d="M91.5001 85.3999V85.0999C91.5001 84.5999 91.8001 81.8999 91.1001 79.1999C91.1001 79.1999 90.7001 77.8999 90.6001 77.8999C90.6001 77.8999 90.6001 78.6999 90.9001 79.1999C91.3001 81.2999 91.1001 84.2999 90.9001 84.8999C90.9001 84.8999 90.7001 85.0999 90.7001 85.2999V85.6999C90.5001 86.8999 90.0001 88.5999 89.4001 89.0999H88.7001H89.1001C89.1001 89.0999 89.7001 89.0999 90.3001 87.7999C90.8001 86.6999 91.0001 85.8999 91.1001 85.4999V85.0999L91.5001 85.3999Z" fill="black"/>
<path d="M89.1 84.0001C89.8 84.0001 90.3 83.5001 90.3 82.8001C90.3 82.1001 89.8 81.6001 89.1 81.6001C88.4 81.6001 87.9 82.1001 87.9 82.8001C87.9 83.5001 88.4 84.0001 89.1 84.0001Z" fill="black"/>
<path d="M90.6001 81.1001C89.1001 79.7001 87.7001 78.8001 87.2001 78.5001V78.3001C87.2001 78.3001 87.0001 78.1001 86.8001 78.1001C86.6001 78.1001 86.5001 78.1001 86.4001 78.3001C86.1001 78.3001 85.5001 78.1001 85.2001 78.3001V78.5001C85.8001 78.5001 86.0001 78.7001 86.3001 78.8001V79.1001C86.3001 79.1001 86.5001 79.3001 86.7001 79.3001C86.9001 79.3001 86.7001 79.3001 86.9001 79.3001C88.6001 79.9001 90.3001 81.3001 90.3001 81.3001L90.8001 81.6001C90.8001 81.6001 90.8001 81.3001 90.6001 81.3001V81.1001Z" fill="black"/>
<path d="M89.4 79.6001L88.9 79.8001C87.1 81.4001 85.8 83.0001 85.5 83.5001C85.3 83.5001 85.1 83.7001 85.1 84.0001V84.3001C84.9 84.7001 84.5 85.6001 84.5 86.3001V87.2001C84.7 87.2001 84.5 86.8001 84.5 86.2001C84.5 86.2001 84.8 85.3001 85.3 84.5001H85.6C85.6 84.5001 85.8 84.3001 85.8 84.1001C86.5 82.7001 88.3 80.6001 88.3 80.6001L89.2 79.8001L89.4 79.6001Z" fill="black"/>
<path d="M95.1 81.7998C95.1 81.7998 94.4 81.1998 93.8 80.9998C93.5 80.9998 91.9 80.2998 89.1 80.2998C86.3 80.2998 84.3 81.0998 83.8 81.2998C83.1 81.6998 82.8 82.1998 82.8 82.1998C82.8 82.1998 83.5 81.7998 83.9 81.5998C85 80.9998 86.7 80.7998 89.1 80.7998C91.5 80.7998 93.9 81.1998 94.2 81.3998C94.5 81.3998 95.2 81.6998 95.2 81.6998L95.1 81.7998Z" fill="black"/>
<path d="M91.3 117.4V117H89.3V117.4H91.3Z" fill="black"/>
<path d="M86.7 119.3V118.9C86.7 118.9 86.5 118.9 86.4 119.9V120.8C86.6 120.8 86.7 120.4 86.7 120.4V119.6C86.7 119.3 86.7 119.1 86.9 119.2H86.7V119.3Z" fill="black"/>
<path d="M87.2 121.4V120.2H86.9V121.9H87.4V121.4H87.2Z" fill="black"/>
<path d="M87.5 123.5L89.3 123.7L89.7 123.2C89.7 123.2 89.1 122.4 89.1 121.8V123.5V123.3H87.4C87.4 123.2 87.4 123.6 87.4 123.6L87.5 123.5Z" fill="black"/>
<path d="M91.4 123.8L92 123.3C92 123.3 91.7 122.4 91.6 121.6V122.7L91.4 123.2V123.7V123.8Z" fill="black"/>
<path d="M99.1 120V120.3L98.9 119.7V119.1V119.5V120H99.1Z" fill="black"/>
<path d="M89.1 89.3C90.3 89.3 91.2 86.4 91.2 82.9C91.2 79.4 90.3 76.5 89.1 76.5C87.9 76.5 87 79.4 87 82.9C87 86.4 87.9 89.3 89.1 89.3Z" stroke="black" stroke-width="0.1"/>
<path d="M95.6 82.8C95.6 81.6 92.6 80.7 89.2 80.7C85.8 80.7 82.8 81.6 82.8 82.8C82.8 84 85.7 84.9 89.2 84.9C92.7 84.9 95.6 84 95.6 82.8ZM94 87C94.8 86.1 93.2 83.5 90.5 81.2C87.8 78.9 85 77.7 84.2 78.6C83.4 79.5 85 82.1 87.7 84.4C90.4 86.7 93.2 87.9 94 87ZM93.4 78C92.5 77.2 89.9 78.7 87.5 81.4C85.1 84.1 83.9 86.8 84.8 87.6C85.7 88.4 88.3 86.9 90.7 84.2C93.1 81.5 94.3 78.8 93.4 78Z" stroke="black" stroke-width="0.1"/>
<path d="M94.1 117.2C94.1 117.2 93.7 115.8 92.5 115.8V116.1V116.5C93.5 116.5 93.8 116.9 94 117.1C94 117.1 94 117.2 94.2 117.3H94.4H94.1V117.2ZM93.9 117.3C93.9 117.3 93.9 117.1 93.7 116.9C93.5 116.7 93.1 116.5 92.3 116.4V116.2V116C93 116 93.4 116.6 93.6 116.9C93.6 117 93.6 117.1 93.8 117.2L93.9 117.3Z" fill="black"/>
<path d="M93.9 118.9C93.9 118.9 93.3 118 92 118V118.4V118.7C92.6 118.7 93.5 118.9 93.9 119H94.1C94.1 118.9 93.9 118.9 93.9 118.9ZM93.8 119V118.8C93.3 118.7 92.6 118.6 92.1 118.5V118.3V118.1C93 118.1 93.5 118.5 93.7 118.8H93.9V119H93.8Z" fill="black"/>
<path d="M93.8 120.4C93.8 120.4 92.6 120.8 92.1 120.8V121.5C92.5 121.5 93.4 121.1 93.8 120.4ZM92.3 121.4V121C92.7 121 93.4 120.8 93.7 120.6V120.4C93.7 120.4 93.7 120.5 93.5 120.6C93.1 121.1 92.5 121.4 92.2 121.4H92.3Z" fill="black"/>
<path d="M71.4 65.7003C71 66.3003 70.6 66.8003 68.9 66.7003C67.6 66.7003 67 66.3003 66.4 65.9003C65.8 66.5003 65 66.7003 64.2 66.7003C62.6 66.7003 60.8 65.6003 60.8 63.0003C60.8 60.4003 61.6 60.3003 63 60.3003C64.4 60.3003 64.4 60.5003 64.9 60.9003C65.2 60.7003 65.8 60.3003 66.4 60.3003C68.6 60.3003 69.4 62.3003 69.9 63.2003C70.2 63.7003 70.6 64.9003 71.5 65.8003L71.4 65.7003Z" stroke="black" stroke-width="0.2"/>
<path d="M80.3 65.8002C79.9 66.4002 79.8 66.7002 78.1 66.7002C76.4 66.7002 76.3 66.7002 75.7 66.1002C75.4 66.4002 74 66.7002 73.1 66.6002C71.2 66.4002 70.2 64.0002 69.7 63.0002C69.4 62.5002 69.1 61.6002 68.4 61.0002C68.7 60.7002 69.9 60.2002 71 60.2002C72.1 60.2002 73.1 60.5002 73.5 60.9002C73.8 60.7002 74.5 60.2002 75.1 60.2002C77.3 60.2002 78.1 62.2002 78.5 63.1002C78.8 63.7002 79.3 64.9002 80.2 65.8002H80.3Z" stroke="black" stroke-width="0.2"/>
<path d="M89.2 65.8002C88.8 66.4002 88.7 66.7002 87 66.7002C85.3 66.7002 85.2 66.7002 84.6 66.1002C84.2 66.4002 82.9 66.7002 82 66.6002C80.1 66.4002 79.1 64.0002 78.6 63.0002C78.3 62.5002 78 61.6002 77.3 61.0002C77.6 60.7002 78.8 60.2002 79.9 60.2002C81 60.2002 82 60.5002 82.4 60.9002C82.7 60.7002 83.4 60.2002 84 60.2002C86.2 60.2002 87 62.2002 87.4 63.1002C87.7 63.7002 88.2 64.9002 89.1 65.8002H89.2Z" stroke="black" stroke-width="0.2"/>
<path d="M98.0001 65.8002C97.6001 66.4002 97.5001 66.7002 95.8001 66.7002C94.1001 66.7002 94.0001 66.7002 93.4001 66.1002C93.1001 66.4002 91.7001 66.7002 90.8001 66.6002C88.9001 66.4002 87.9001 64.0002 87.4001 63.0002C87.2001 62.5002 86.8001 61.6002 86.1001 61.0002C86.4001 60.7002 87.6001 60.2002 88.7001 60.2002C89.8001 60.2002 90.8001 60.5002 91.2001 60.9002C91.5001 60.7002 92.2001 60.2002 92.8001 60.2002C95.0001 60.2002 95.8001 62.2002 96.2001 63.1002C96.5001 63.7002 97.0001 64.9002 97.9001 65.8002H98.0001Z" stroke="black" stroke-width="0.2"/>
<path d="M106.8 65.8002C106.4 66.4002 106.3 66.7002 104.6 66.7002C102.9 66.7002 102.8 66.7002 102.2 66.1002C101.9 66.4002 100.5 66.7002 99.6 66.6002C97.7 66.4002 96.7 64.0002 96.2 63.0002C95.9 62.5002 95.6 61.6002 94.9 61.0002C95.2 60.7002 96.4 60.2002 97.5 60.2002C98.6 60.2002 99.6 60.5002 100 60.9002C100.3 60.7002 101 60.2002 101.6 60.2002C103.8 60.2002 104.6 62.2002 105 63.1002C105.3 63.7002 105.8 64.9002 106.7 65.8002H106.8Z" stroke="black" stroke-width="0.2"/>
<path d="M115.1 65.3002C114.9 66.0002 114.6 66.7002 113.5 66.7002C112.4 66.7002 111.7 66.7002 111.1 66.1002C110.7 66.4002 109.4 66.7002 108.5 66.6002C106.6 66.4002 105.6 64.0002 105.1 63.0002C104.8 62.5002 104.5 61.6002 103.8 61.0002C104.1 60.7002 105.3 60.2002 106.4 60.2002C107.5 60.2002 108.5 60.5002 108.9 60.9002C109.2 60.7002 109.9 60.2002 110.5 60.2002C112.7 60.2002 113.4 61.6002 114.3 62.9002C114.7 63.4002 115.2 64.6002 115 65.3002H115.1Z" stroke="black" stroke-width="0.2"/>
<path d="M100.1 60.8003C101 61.4003 101.3 62.4003 102.5 63.0003C101.7 61.9003 100.4 60.7003 101.6 60.3003C101.1 60.0003 100.3 60.8003 100.1 60.9003V60.8003Z" fill="black"/>
<path d="M102.1 66.1004C101.4 65.4004 101 64.2004 99.7 63.9004C100.7 64.8004 101.5 66.0004 100.5 66.6004C101.2 66.6004 101.7 66.4004 102.1 66.1004Z" fill="black"/>
<path d="M108.9 60.8002C109.8 61.4002 110.1 62.4002 111.3 63.0002C110.5 61.9002 109.2 60.7002 110.4 60.3002C109.9 60.0002 109.4 60.7002 108.9 60.9002V60.8002Z" fill="black"/>
<path d="M111 66.1004C110.3 65.4004 109.9 64.2004 108.6 63.9004C109.6 64.8004 110.4 66.0004 109.4 66.7004C110.1 66.7004 110.5 66.5004 111 66.2004V66.1004Z" fill="black"/>
<path d="M64.9 60.8002C65.8 61.4002 66.1 62.4002 67.2 62.9002C66.4 61.8002 65.2 60.6002 66.4 60.2002C65.8 60.2002 65.2 60.6002 64.9 60.8002Z" fill="black"/>
<path d="M66.4 65.9C65.7 65.2 65.2 63.8 64 63.5C65 64.4 65.9 65.9 64.9 66.6C65.7 66.6 66.1 66.2 66.5 65.9H66.4Z" fill="black"/>
<path d="M73.6 60.9002C74.5 61.5002 74.8 62.5002 76 63.0002C75.2 61.9002 74 60.7002 75.2 60.3002C74.7 60.0002 74.1 60.7002 73.6 60.9002Z" fill="black"/>
<path d="M75.6 66.1004C74.9 65.4004 74.5 64.2004 73.2 63.9004C74.2 64.8004 75 65.9004 74 66.6004C74.7 66.6004 75.2 66.4004 75.6 66.1004Z" fill="black"/>
<path d="M82.4 60.8C83.3 61.4 83.6 62.4 84.8 63C84 61.9 82.7 60.7 83.9 60.3C83.4 60.1 82.9 60.7 82.4 60.9V60.8Z" fill="black"/>
<path d="M84.5 66.1004C83.8 65.4004 83.4 64.2004 82.1 63.9004C83.1 64.8004 83.9 65.9004 82.9 66.6004C83.6 66.6004 84 66.4004 84.5 66.1004Z" fill="black"/>
<path d="M91.2 60.8002C92.1 61.4002 92.4 62.4002 93.6 63.0002C92.8 61.9002 91.5 60.7002 92.7 60.3002C92.2 60.0002 91.7 60.7002 91.2 60.9002V60.8002Z" fill="black"/>
<path d="M93.3 66.1004C92.6 65.4004 92.2 64.2004 90.9 63.9004C91.9 64.8004 92.7 65.9004 91.7 66.6004C92.4 66.6004 92.9 66.4004 93.3 66.1004Z" fill="black"/>
<path d="M68.5 65.6999C69.4 65.6999 70.4 65.6999 70.5 65.4999C70.5 66.0999 69.6 66.2999 68.3 66.1999C66.9 66.1999 66.1 64.7999 65.9 64.5999C65.5 64.0999 65.6 61.4999 63 60.3999C66.2 60.3999 66 65.3999 68.5 65.5999V65.6999Z" fill="black"/>
<path d="M78.2 65.7999C78.8 65.7999 79.6 65.4999 79.7 65.3999C79.7 65.9999 78.9 66.2999 78 66.2999C76.6 66.2999 74.8 64.4999 74.6 64.2999C74.4 63.9999 74 62.9999 72.1 62.9999C70.2 62.9999 70.4 60.8999 69.8 60.8999C70 60.8999 70.6 60.3999 71.2 60.3999C74.3 60.3999 75.7 65.7999 78.3 65.7999H78.2Z" fill="black"/>
<path d="M87 65.7999C87.6 65.7999 88.4 65.4999 88.5 65.3999C88.5 65.9999 87.7 66.2999 86.8 66.2999C85.4 66.2999 83.6 64.4999 83.4 64.2999C83.2 63.9999 82.8 62.9999 80.9 62.9999C79 62.9999 79.2 60.8999 78.6 60.8999C78.8 60.8999 79.4 60.3999 80 60.3999C83.1 60.3999 84.5 65.7999 87.1 65.7999H87Z" fill="black"/>
<path d="M95.8 65.7999C96.4 65.7999 97.2 65.4999 97.3 65.3999C97.3 65.9999 96.5 66.2999 95.6 66.2999C94.2 66.2999 92.4 64.4999 92.2 64.2999C92 63.9999 91.6 62.9999 89.7 62.9999C87.8 62.9999 88 60.8999 87.4 60.8999C87.6 60.8999 88.2 60.3999 88.8 60.3999C92 60.3999 93.3 65.7999 95.9 65.7999H95.8Z" fill="black"/>
<path d="M104.7 65.7999C105.3 65.7999 106.1 65.4999 106.2 65.3999C106.2 65.9999 105.4 66.2999 104.5 66.2999C103.1 66.2999 101.3 64.4999 101.1 64.2999C100.9 63.9999 100.5 62.9999 98.6 62.9999C96.7 62.9999 96.9 60.8999 96.3 60.8999C96.5 60.8999 97.1 60.3999 97.7 60.3999C100.9 60.3999 102.2 65.7999 104.8 65.7999H104.7Z" fill="black"/>
<path d="M113.5 65.7999C114.1 65.7999 114.2 66.2999 113.3 66.2999C111.9 66.2999 110.1 64.4999 109.9 64.2999C109.7 63.9999 109.3 62.9999 107.4 62.9999C105.5 62.9999 105.7 60.8999 105.1 60.8999C105.3 60.8999 105.9 60.3999 106.5 60.3999C109.7 60.3999 111 65.7999 113.5 65.7999Z" fill="black"/>
<path d="M94.6 116.9C94.9 117.2 95.2 117.7 95.3 118.2C95.3 118.4 95 121.5 95.3 121.9L94.3 122.8C93.6 121 93.9 117.2 94.3 116.7C94.3 116.7 94.5 116.7 94.7 117L94.6 116.9Z" stroke="black" stroke-width="0.1"/>
<path d="M94 122.7C93.8 122.1 93.7 121.6 93.6 120.9C93.2 121.2 92.7 121.4 92.4 121.5V121C92.7 121 93.2 120.8 93.6 120.7V118.9C93.2 118.9 92.6 118.7 92.1 118.7V118.3C92.7 118.3 93.2 118.5 93.6 118.8C93.6 118.2 93.6 117.7 93.8 117.2C93.6 117 93.2 116.8 92.4 116.7V116.2C93 116.2 93.4 116.5 93.7 117V116.4C93.7 116.1 93.1 115.6 92.7 115.5H92.4C91.6 116.5 91.5 118.2 91.6 119.4C91.6 121 92 122.5 92.3 123.2H93.2L93.7 122.8H94V122.7Z" fill="black"/>
<path d="M227.9 58.0998C222.5 58.0998 218.6 56.9998 216.3 54.8998C213.9 52.7998 212.7 49.2998 212.7 44.5998V30.1998C212.7 28.9998 212.6 28.0998 212.3 27.3998C212.1 26.6998 211.6 26.2998 210.9 25.9998C210.2 25.6998 209.2 25.5998 207.8 25.5998V23.3998H225.2V25.5998C223.8 25.5998 222.8 25.5998 222.1 25.9998C221.4 26.3998 220.9 26.6998 220.7 27.3998C220.5 28.0998 220.4 29.0998 220.4 30.3998V43.5998C220.4 45.7998 220.7 47.6998 221.2 49.1998C221.7 50.6998 222.6 51.7998 223.9 52.5998C225.2 53.3998 227 53.6998 229.2 53.6998C232.4 53.6998 234.8 52.9998 236.3 51.4998C237.8 49.9998 238.5 47.4998 238.5 43.9998V32.1998C238.5 30.3998 238.4 28.9998 238.2 27.9998C238 26.9998 237.5 26.3998 236.8 25.9998C236.1 25.6998 235 25.4998 233.6 25.4998V23.2998H247.1V25.4998C245.6 25.4998 244.5 25.6998 243.8 25.9998C243.1 26.2998 242.6 26.9998 242.4 27.8998C242.2 28.7998 242.1 30.1998 242.1 31.9998V43.5998C242.1 48.3998 241 51.9998 238.8 54.3998C236.6 56.7998 232.9 57.9998 227.8 57.9998L227.9 58.0998Z" fill="black" stroke="black" stroke-width="0.2"/>
<path d="M254.3 57.8C253 57.8 252 57.4 251.3 56.7C250.6 56 250.2 55 250.2 53.9C250.2 52.8 250.6 51.8 251.3 51.1C252 50.4 253 50 254.3 50C255.6 50 256.6 50.3 257.3 51.1C258 51.8 258.3 52.8 258.3 53.9C258.3 55 257.9 56 257.3 56.7C256.6 57.4 255.6 57.8 254.3 57.8Z" fill="black" stroke="black" stroke-width="0.2"/>
<path d="M267.9 57.9999H265.7L265.2 46.7999H267.8C268.3 48.9999 269 50.6999 269.6 51.8999C270.2 53.0999 271.1 53.8999 272.1 54.3999C273.1 54.8999 274.2 55.0999 275.6 55.0999C277 55.0999 277.7 54.8999 278.7 54.6999C279.7 54.4999 280.5 53.8999 281.1 53.2999C281.7 52.6999 282 51.6999 282 50.5999C282 49.4999 281.6 47.8999 280.9 46.8999C280.2 45.9999 279.2 45.0999 278.1 44.4999C276.9 43.7999 275.7 43.1999 274.3 42.5999C272.7 41.7999 271.2 40.9999 269.8 40.0999C268.4 39.1999 267.3 38.0999 266.5 36.7999C265.7 35.4999 265.3 33.7999 265.3 31.5999C265.3 29.3999 265.8 28.0999 266.7 26.7999C267.6 25.4999 269 24.5999 270.7 23.8999C272.4 23.1999 274.5 22.8999 276.8 22.8999C279.1 22.8999 279.2 22.8999 280 23.1999C280.8 23.3999 281.5 23.5999 282.1 23.7999C282.6 23.9999 283.1 24.0999 283.6 24.0999C284.1 24.0999 284.2 24.0999 284.5 23.8999C284.8 23.6999 285 23.3999 285.1 22.8999H287.1L287.4 33.7999H285C284.2 30.6999 283.2 28.4999 282 27.1999C280.8 25.8999 279.1 25.2999 277.2 25.2999C275.3 25.2999 274 25.5999 273.1 26.2999C272.2 26.9999 271.7 27.9999 271.7 29.2999C271.7 30.5999 272.1 31.5999 272.8 32.3999C273.5 33.1999 274.5 33.8999 275.7 34.5999C276.9 35.1999 278.2 35.8999 279.6 36.4999C280.8 36.9999 282 37.6999 283.2 38.2999C284.4 38.9999 285.4 39.7999 286.3 40.5999C287.2 41.4999 288 42.5999 288.5 43.7999C289 44.9999 289.3 46.4999 289.3 48.0999C289.3 49.6999 288.8 51.9999 287.7 53.4999C286.6 54.9999 285.1 56.0999 283.2 56.7999C281.2 57.5999 279 57.8999 276.4 57.8999C273.8 57.8999 273.5 57.8999 272.6 57.4999C271.7 57.0999 271 56.9999 270.6 56.6999C270.2 56.3999 269.7 56.2999 269.3 56.2999C268.9 56.2999 268.6 56.4999 268.3 56.6999C268 56.9999 267.9 57.3999 267.9 57.8999V57.9999Z" fill="black" stroke="black" stroke-width="0.2"/>
<path d="M300.1 57.8C298.8 57.8 297.8 57.4 297.1 56.7C296.4 56 296 55 296 53.9C296 52.8 296.4 51.8 297.1 51.1C297.8 50.4 298.8 50 300.1 50C301.4 50 302.4 50.3 303.1 51.1C303.8 51.8 304.1 52.8 304.1 53.9C304.1 55 303.7 56 303.1 56.7C302.4 57.4 301.4 57.8 300.1 57.8Z" fill="black" stroke="black" stroke-width="0.2"/>
<path d="M340.5 57.2997H325.4V55.0997C326.8 55.0997 327.9 55.0997 328.6 54.7997C329.3 54.5997 329.7 54.0997 330 53.3997C330.3 52.6997 330.3 51.6997 330.3 50.1997V29.8997C330.3 28.5997 330.2 27.6997 329.9 27.0997C329.6 26.4997 329.1 26.0997 328.4 25.8997C327.7 25.6997 326.7 25.5997 325.5 25.5997V23.1997H340.4C343 23.1997 345.5 23.3997 348 23.8997C350.5 24.3997 352.7 25.1997 354.6 26.2997C356.6 27.4997 358.1 29.0997 359.3 31.2997C360.5 33.3997 361 36.1997 361 39.5997C361 42.9997 360.5 45.7997 359.4 48.0997C358.3 50.3997 356.9 52.1997 355 53.4997C353.1 54.7997 350.9 55.7997 348.5 56.3997C346 56.9997 343.4 57.1997 340.6 57.1997H340.5V57.2997ZM340.2 54.3997C342.8 54.3997 345 53.9997 346.9 53.2997C348.8 52.4997 350.2 51.0997 351.2 49.0997C352.2 47.0997 352.7 44.1997 352.7 40.2997C352.7 36.3997 351.7 32.2997 349.6 29.8997C347.5 27.4997 344.3 26.2997 339.9 26.2997H337.9V54.2997H340.2V54.3997Z" fill="black" stroke="black" stroke-width="0.2"/>
<path d="M396.8 57.2998H367.1V55.0998C368.3 55.0998 369.2 55.0998 369.9 54.7998C370.6 54.5998 371.1 54.1998 371.4 53.5998C371.7 52.9998 371.9 52.0998 371.9 50.7998V30.2998C371.9 28.9998 371.8 27.9998 371.6 27.2998C371.4 26.5998 370.9 26.1998 370.2 25.9998C369.5 25.7998 368.5 25.5998 367 25.5998V23.2998H396.1L396.4 32.6998H393.8C393.6 31.1998 393.2 29.8998 392.8 28.9998C392.4 28.0998 391.7 27.4998 390.7 27.0998C389.7 26.6998 388.3 26.5998 386.3 26.5998H379.5V38.4998H384.1C385.8 38.4998 387.1 38.4998 387.9 38.1998C388.7 37.9998 389.2 37.5998 389.4 36.9998C389.6 36.3998 389.7 35.3998 389.7 33.9998H392.1V45.9998H389.7C389.7 44.5998 389.6 43.4998 389.4 42.7998C389.2 42.0998 388.7 41.6998 387.9 41.4998C387.1 41.2998 385.9 41.1998 384.1 41.1998H379.5V54.0998H385.6C387.3 54.0998 388.7 54.0998 389.8 53.7998C390.9 53.4998 391.8 53.1998 392.5 52.6998C393.2 52.1998 393.7 51.4998 394.2 50.4998C394.7 49.5998 395.1 48.3998 395.5 46.9998H398L396.8 57.1998V57.2998Z" fill="black" stroke="black" stroke-width="0.2"/>
<path d="M421.6 57.2999H403.3V55.0999C404.8 55.0999 405.9 55.0999 406.5 54.7999C407.2 54.5999 407.6 54.0999 407.8 53.3999C408 52.6999 408.1 51.5999 408.1 50.1999V29.6999C408.1 27.9999 407.7 26.8999 407.1 26.3999C406.5 25.8999 405.1 25.5999 403.3 25.5999V23.3999H420C421.8 23.3999 423.5 23.3999 425.1 23.7999C426.7 24.1999 428.2 24.4999 429.5 25.0999C430.8 25.7999 431.8 26.6999 432.5 27.8999C433.2 29.0999 433.6 30.5999 433.6 32.4999C433.6 34.3999 433.2 36.2999 432.5 37.6999C431.8 39.0999 430.7 40.1999 429.4 40.9999C428.1 41.7999 426.6 42.3999 424.9 42.7999C423.2 43.1999 421.5 43.2999 419.7 43.2999C417.9 43.2999 418.4 43.2999 417.7 43.0999C417 42.8999 416.4 42.7999 415.8 42.6999V50.3999C415.8 51.7999 415.9 52.7999 416.1 53.4999C416.3 54.1999 416.9 54.6999 417.7 54.8999C418.5 55.0999 419.8 55.1999 421.6 55.1999V57.3999V57.2999ZM418.6 40.1999C420.2 40.1999 421.5 39.9999 422.6 39.5999C423.7 39.1999 424.4 38.4999 425 37.3999C425.6 36.2999 425.8 34.6999 425.8 32.6999C425.8 30.6999 425.3 28.5999 424.1 27.4999C423 26.3999 421.1 25.7999 418.5 25.7999C415.9 25.7999 417.6 25.7999 417.3 25.7999H416V39.7999C416.4 39.7999 416.7 39.7999 417.1 39.9999H418.8H418.6V40.1999Z" fill="black" stroke="black" stroke-width="0.2"/>
<path d="M444.6 57.3001H432.8V55.1001C433.7 55.1001 434.4 55.1001 435 54.7001C435.6 54.3001 436.1 53.9001 436.5 53.2001C436.9 52.5001 437.5 51.4001 438 50.1001L449.2 23.1001H454.6L465.8 50.2001C466.5 51.9001 467.2 53.1001 468 53.9001C468.8 54.7001 469.8 55.1001 470.9 55.1001V57.3001H454.3V55.1001H455.7C456.2 55.1001 456.6 54.9001 456.9 54.7001C457.2 54.5001 457.4 54.1001 457.4 53.6001C457.4 53.1001 457.3 52.7001 457.1 51.9001C456.9 51.1001 456.6 50.4001 456.4 49.7001L454.9 45.9001L454.5 44.6001L449.6 31.0001H449.4L443.9 44.6001L443.5 45.9001L441.7 50.3001C441.6 50.7001 441.4 51.2001 441.2 51.8001C441 52.4001 440.9 52.9001 440.9 53.3001C440.9 54.1001 441.2 54.6001 441.7 54.9001C442.2 55.1001 443.1 55.2001 444.4 55.2001V57.4001H444.6V57.3001ZM456 46.4001H442.6L443.5 43.7001H455L455.9 46.4001H456Z" fill="black" stroke="black" stroke-width="0.2"/>
<path d="M493 57.2999H475.4V55.0999C476.7 55.0999 477.7 55.0999 478.4 54.7999C479.1 54.4999 479.6 54.0999 479.8 53.4999C480.1 52.7999 480.2 51.7999 480.2 50.2999V29.5999C480.2 28.5999 480.1 27.7999 479.9 27.1999C479.7 26.5999 479.2 26.1999 478.5 25.9999C477.8 25.7999 476.8 25.5999 475.4 25.5999V23.3999H492.3C494.7 23.3999 497 23.6999 499 24.1999C501 24.6999 502.7 25.5999 504 26.8999C505.3 28.1999 505.9 29.8999 505.9 32.0999C505.9 34.2999 505.5 35.4999 504.8 36.6999C504 37.8999 503 38.7999 501.8 39.3999C500.6 40.0999 499.2 40.5999 497.8 40.8999V41.1999C498.3 41.4999 498.9 42.0999 499.6 42.8999C500.2 43.6999 501.1 44.7999 502.1 46.2999C503.2 47.7999 504.6 49.8999 506.5 52.4999C507.3 53.5999 508.1 54.3999 509 54.6999C509.8 54.9999 510.8 55.1999 512 55.1999V57.3999H500.2C499 55.2999 498.1 53.5999 497.3 52.2999C496.5 50.9999 495.9 49.7999 495.4 48.9999C494.9 48.0999 494.4 47.2999 493.9 46.5999C493.5 45.8999 493 45.0999 492.5 44.2999C492 43.4999 491.6 42.9999 491.1 42.7999C490.6 42.5999 490 42.4999 489.1 42.4999H488.1V50.4999C488.1 51.8999 488.2 52.8999 488.5 53.5999C488.8 54.2999 489.2 54.6999 490 54.8999C490.8 55.0999 491.8 55.1999 493.3 55.1999V57.3999H493V57.2999ZM487.9 39.7999H489.9C491.6 39.7999 493.1 39.4999 494.2 38.9999C495.4 38.4999 496.3 37.7999 496.9 36.7999C497.5 35.7999 497.8 34.2999 497.8 32.3999C497.8 30.4999 497.3 28.8999 496.2 27.6999C495.1 26.4999 493.4 25.8999 491 25.8999C488.6 25.8999 489.9 25.8999 489.4 25.8999H487.9V39.6999V39.7999Z" fill="black" stroke="black" stroke-width="0.2"/>
<path d="M537.7 57.2999H519.9V55.0999C521.4 55.0999 522.5 55.0999 523.2 54.7999C523.9 54.5999 524.4 54.0999 524.6 53.2999C524.8 52.4999 524.9 51.3999 524.9 49.7999V26.1999H522.6C520.7 26.1999 519.3 26.3999 518.3 26.8999C517.3 27.3999 516.7 28.0999 516.3 29.1999C515.9 30.2999 515.5 31.6999 515.1 33.5999H512.5L513.1 23.3999H544.6L545.1 33.5999H542.5C542.1 31.6999 541.7 30.2999 541.3 29.1999C540.9 28.0999 540.2 27.3999 539.3 26.8999C538.4 26.3999 536.9 26.1999 535 26.1999H532.7V49.7999C532.7 51.3999 532.7 52.4999 533 53.2999C533.3 54.0999 533.7 54.4999 534.4 54.7999C535.1 54.9999 536.2 55.0999 537.6 55.0999V57.2999H537.7Z" fill="black" stroke="black" stroke-width="0.2"/>
<path d="M562.5 57.2999H549.3V55.0999C550.7 55.0999 551.7 55.0999 552.4 54.7999C553.1 54.4999 553.5 54.0999 553.7 53.2999C553.9 52.4999 554 51.1999 554 49.4999V30.3999C554 29.0999 554 28.0999 553.7 27.3999C553.4 26.6999 553 26.1999 552.4 25.9999C551.8 25.7999 550.7 25.5999 549.4 25.5999V23.3999H563.9L573.6 47.3999H574L583.7 23.3999H597.3V25.5999C596.1 25.5999 595.2 25.5999 594.6 25.9999C594 26.3999 593.5 26.6999 593.3 27.3999C593.1 28.0999 592.9 29.0999 592.9 30.3999V50.9999C592.9 52.0999 592.9 52.9999 593.3 53.5999C593.7 54.1999 594 54.5999 594.7 54.7999C595.4 54.9999 596.3 55.0999 597.4 55.0999V57.2999H580.7V55.0999C582 55.0999 583 55.0999 583.7 54.7999C584.4 54.5999 584.8 54.1999 585 53.5999C585.2 52.9999 585.3 52.0999 585.3 50.9999V30.3999H585L573.8 57.3999H569.7L558.3 30.3999H558V49.4999C558 51.2999 558 52.4999 558.3 53.2999C558.6 54.0999 559 54.5999 559.6 54.7999C560.3 54.9999 561.2 55.0999 562.5 55.0999V57.2999Z" fill="black" stroke="black" stroke-width="0.2"/>
<path d="M633.1 57.2998H603.4V55.0998C604.6 55.0998 605.5 55.0998 606.2 54.7998C606.9 54.4998 607.4 54.1998 607.7 53.5998C608 52.9998 608.2 52.0998 608.2 50.7998V30.2998C608.2 28.9998 608.2 27.9998 607.9 27.2998C607.6 26.5998 607.2 26.1998 606.6 25.9998C605.9 25.7998 604.9 25.5998 603.4 25.5998V23.2998H632.5L632.8 32.6998H630.2C630 31.1998 629.6 29.8998 629.2 28.9998C628.8 28.0998 628.1 27.4998 627.1 27.0998C626.1 26.6998 624.7 26.5998 622.8 26.5998H616V38.4998H620.6C622.3 38.4998 623.6 38.4998 624.4 38.1998C625.2 37.9998 625.7 37.5998 625.9 36.9998C626.1 36.3998 626.2 35.3998 626.2 33.9998H628.6V45.9998H626.2C626.2 44.5998 626.2 43.4998 625.9 42.7998C625.6 42.0998 625.2 41.6998 624.4 41.4998C623.6 41.2998 622.4 41.1998 620.6 41.1998H616V54.0998H622.1C623.8 54.0998 625.2 54.0998 626.3 53.7998C627.4 53.4998 628.3 53.1998 629 52.6998C629.7 52.1998 630.2 51.4998 630.7 50.4998C631.2 49.5998 631.6 48.3998 632 46.9998H634.5L633.3 57.1998H633.1V57.2998Z" fill="black" stroke="black" stroke-width="0.2"/>
<path d="M673.4 57.6999H667.4L647.6 30.9999H645.7L644.2 28.4999C643.6 27.5999 643.1 26.9999 642.6 26.5999C642.1 26.1999 641.6 25.8999 641 25.7999C640.4 25.6999 639.8 25.5999 639.1 25.5999V23.3999H651.5L669.7 47.7999H670V32.2999C670 30.9999 670 29.7999 669.8 28.7999C669.6 27.7999 669.2 26.9999 668.6 26.4999C667.9 25.9999 666.8 25.6999 665.2 25.6999V23.4999H678.2V25.6999C676.7 25.6999 675.7 25.9999 675 26.4999C674.3 26.9999 673.9 27.7999 673.8 28.7999C673.7 29.7999 673.6 30.9999 673.6 32.2999V57.7999H673.4V57.6999ZM652.1 57.2999H639.1V55.0999C640.5 55.0999 641.5 54.5999 642.2 53.6999C642.9 52.7999 643.4 51.4999 643.6 49.9999C643.8 48.4999 644 46.8999 644 45.1999V27.1999H647.4V48.8999C647.4 50.5999 647.4 51.8999 647.8 52.7999C648 53.6999 648.5 54.2999 649.2 54.5999C649.9 54.8999 650.9 55.0999 652.2 55.0999V57.2999H652.1Z" fill="black" stroke="black" stroke-width="0.2"/>
<path d="M706.9 57.2999H689.1V55.0999C690.6 55.0999 691.7 55.0999 692.4 54.7999C693.1 54.5999 693.6 54.0999 693.8 53.2999C694 52.4999 694.1 51.3999 694.1 49.7999V26.1999H691.8C689.9 26.1999 688.5 26.3999 687.5 26.8999C686.5 27.3999 685.9 28.0999 685.5 29.1999C685.1 30.2999 684.7 31.6999 684.3 33.5999H681.7L682.3 23.3999H713.8L714.3 33.5999H711.7C711.3 31.6999 710.9 30.2999 710.5 29.1999C710.1 28.0999 709.4 27.3999 708.5 26.8999C707.6 26.3999 706.1 26.1999 704.2 26.1999H701.9V49.7999C701.9 51.3999 701.9 52.4999 702.2 53.2999C702.5 54.0999 702.9 54.4999 703.6 54.7999C704.3 54.9999 705.4 55.0999 706.8 55.0999V57.2999H706.9Z" fill="black" stroke="black" stroke-width="0.2"/>
<path d="M222.1 147C219.3 147 216.9 146.4 214.9 145.2C212.9 144 211.5 142.3 210.5 140.1C209.5 137.9 209 135.4 209 132.5C209 129.6 209.5 126.5 210.4 123.7C211.3 120.9 212.7 118.5 214.3 116.4C215.9 114.3 218 112.6 220.3 111.4C222.6 110.2 225.1 109.6 227.8 109.6C230.5 109.6 233.4 110.3 235.3 111.7C237.2 113.1 238.7 114.9 239.6 117.1C240.5 119.3 241 121.8 241 124.5C241 127.2 240.5 130.5 239.5 133.2C238.5 135.9 237.2 138.3 235.5 140.4C233.8 142.5 231.8 144.1 229.5 145.3C227.2 146.5 224.7 147.1 222.1 147.1V147ZM222.9 144.4C224.7 144.4 226.4 143.8 227.8 142.4C229.2 141.1 230.4 139.4 231.3 137.3C232.2 135.2 233 133 233.4 130.5C233.9 128.1 234.1 125.7 234.1 123.4C234.1 121.1 233.9 119.4 233.5 117.7C233.1 116 232.4 114.6 231.5 113.6C230.5 112.6 229.1 112.1 227.3 112.1C225.5 112.1 223.6 112.7 222.1 114.1C220.6 115.5 219.4 117.1 218.5 119.2C217.6 121.3 216.9 123.6 216.4 126.1C215.9 128.6 215.7 131 215.7 133.3C215.7 135.6 215.9 137 216.3 138.7C216.7 140.4 217.4 141.8 218.4 142.8C219.4 143.8 220.9 144.4 222.8 144.4H222.9Z" fill="black" stroke="black" stroke-width="0.2"/>
<path d="M242.8 163.5C240.3 163.5 238.6 162.9 237.5 161.7C236.4 160.5 235.9 159.3 235.9 157.9C235.9 156.5 236.2 155.9 236.7 155.2C237.2 154.5 238 154.1 239 154.1C240 154.1 241 154.5 241.4 155.1C241.8 155.8 242.1 156.6 242.2 157.5C242.3 158.4 242.5 159.2 242.7 159.9C242.9 160.6 243.4 160.9 244.1 160.9C244.8 160.9 245.6 160.5 246.3 159.6C246.9 158.7 247.5 157.6 248 156.2C248.5 154.8 249 153.3 249.3 151.7C249.6 150.1 250 148.5 250.3 147.1C250.6 145.7 250.8 144.4 250.9 143.3L256.2 111.5C256.6 109 257.1 106.7 257.7 104.5C258.3 102.3 259 100.4 260 98.7001C260.7 97.5001 261.5 96.3001 262.5 95.3001C263.5 94.3001 264.7 93.3001 266.2 92.6001C267.7 91.9001 269.5 91.6001 271.7 91.6001C273.9 91.6001 274.6 91.8001 275.7 92.3001C276.8 92.8001 277.6 93.4001 278.2 94.3001C278.8 95.1001 279 96.1001 279 97.2001C279 98.3001 278.7 99.2001 278.1 99.7001C277.5 100.3 276.8 100.5 276 100.5C275.2 100.5 274.2 100.2 273.8 99.6001C273.3 99.0001 273.1 98.3001 273 97.5001C272.9 96.5001 272.7 95.7001 272.4 94.9001C272.1 94.1001 271.6 93.7001 270.7 93.7001C268.7 93.7001 267.2 94.7001 266.1 96.8001C265 98.9001 264.1 101.5 263.6 104.8L257.9 139.6C257.7 140.9 257.4 142.6 256.9 144.6C256.5 146.6 255.9 148.7 255.1 150.8C254.4 153 253.4 155 252.3 156.9C251.2 158.8 249.9 160.3 248.3 161.5C246.7 162.7 244.9 163.3 242.8 163.3V163.5ZM269.3 113.6H249.4L249.7 110.5H269.7L269.2 113.6H269.3Z" fill="black" stroke="black" stroke-width="0.2"/>
<path d="M351.2 146.3H298V142.3C300.1 142.3 301.8 142.1 303.1 141.8C304.4 141.5 305.3 140.7 305.8 139.7C306.3 138.7 306.6 136.9 306.6 134.6V97.7998C306.6 95.4998 306.4 93.6998 306 92.4998C305.6 91.2998 304.8 90.4998 303.6 90.0998C302.4 89.6998 300.5 89.3998 297.9 89.3998V85.2998H350.1L350.7 102.1H346C345.6 99.2998 345 97.0998 344.2 95.4998C343.4 93.8998 342.2 92.7998 340.4 92.0998C338.6 91.3998 336.1 91.0998 332.6 91.0998H320.4V112.5H328.7C331.8 112.5 334.1 112.4 335.5 112C336.9 111.7 337.8 111 338.2 109.9C338.6 108.8 338.8 107 338.8 104.6H343.2V126H338.8C338.8 123.4 338.6 121.5 338.2 120.3C337.8 119.1 336.9 118.3 335.5 118C334.1 117.7 331.8 117.5 328.7 117.5H320.4V140.6H331.4C334.4 140.6 336.9 140.4 338.9 140C340.9 139.6 342.5 139 343.7 138.1C344.9 137.2 345.9 135.9 346.7 134.2C347.5 132.6 348.3 130.5 349 127.9H353.5L351.3 146.2L351.2 146.3Z" fill="black" stroke="black" stroke-width="0.2"/>
<path d="M424.4 146.9H413.7L378.2 99.0001H374.9L372.1 94.4001C371.1 92.8001 370.1 91.7001 369.2 91.0001C368.3 90.3001 367.4 89.8001 366.4 89.6001C365.4 89.4001 364.3 89.2001 363 89.2001V85.2001H385.3L417.9 128.9H418.4V101.1C418.4 98.7001 418.3 96.6001 418 94.8001C417.7 93.0001 417 91.6001 415.8 90.6001C414.6 89.6001 412.5 89.1001 409.6 89.1001V85.1001H433V89.1001C430.3 89.1001 428.4 89.6001 427.2 90.6001C426 91.6001 425.3 93.0001 425 94.8001C424.7 96.6001 424.6 98.7001 424.6 101.1V146.8H424.4V146.9ZM386.2 146.3H362.9V142.3C365.4 142.3 367.2 141.5 368.5 139.8C369.7 138.1 370.6 135.9 371 133.3C371.4 130.6 371.6 127.7 371.6 124.6V92.4001H377.7V131.3C377.7 134.4 377.9 136.7 378.3 138.3C378.7 139.9 379.6 140.9 380.8 141.5C382 142.1 383.8 142.3 386.1 142.3V146.3H386.2Z" fill="black" stroke="black" stroke-width="0.2"/>
<path d="M495.5 146.3H442.3V142.3C444.4 142.3 446.1 142.1 447.4 141.8C448.7 141.5 449.6 140.7 450.1 139.7C450.6 138.7 450.9 136.9 450.9 134.6V97.7998C450.9 95.4998 450.7 93.6998 450.3 92.4998C449.9 91.2998 449.1 90.4998 447.9 90.0998C446.7 89.6998 444.8 89.3998 442.2 89.3998V85.2998H494.4L495 102.1H490.3C489.9 99.2998 489.3 97.0998 488.5 95.4998C487.7 93.8998 486.5 92.7998 484.7 92.0998C482.9 91.3998 480.4 91.0998 476.9 91.0998H464.7V112.5H473C476.1 112.5 478.4 112.4 479.8 112C481.2 111.7 482.1 111 482.5 109.9C482.9 108.8 483.1 107 483.1 104.6H487.5V126H483.1C483.1 123.4 482.9 121.5 482.5 120.3C482.1 119.1 481.2 118.3 479.8 118C478.4 117.7 476.1 117.5 473 117.5H464.7V140.6H475.7C478.7 140.6 481.2 140.4 483.2 140C485.2 139.6 486.8 139 488 138.1C489.2 137.2 490.2 135.9 491 134.2C491.8 132.6 492.6 130.5 493.3 127.9H497.8L495.6 146.2L495.5 146.3Z" fill="black" stroke="black" stroke-width="0.2"/>
<path d="M539.9 146.3H508.2V142.3C510.5 142.3 512.3 142.1 513.6 141.7C514.9 141.3 515.7 140.5 516.1 139.3C516.6 138.1 516.8 136.2 516.8 133.6V96.4997C516.8 94.5997 516.6 93.1997 516.2 92.0997C515.8 90.9997 515 90.2997 513.7 89.8997C512.5 89.4997 510.6 89.1997 508.1 89.1997V85.1997H538.4C542.7 85.1997 546.7 85.6997 550.4 86.5997C554.1 87.4997 557.1 89.1997 559.3 91.3997C561.6 93.6997 562.7 96.7997 562.7 100.7C562.7 104.6 562 106.9 560.7 109C559.4 111.1 557.5 112.7 555.3 113.9C553.1 115.1 550.7 116 548.1 116.6V117.1C549.1 117.7 550.1 118.7 551.3 120.1C552.4 121.5 553.9 123.5 555.8 126.3C557.7 129.1 560.3 132.7 563.7 137.4C565.1 139.4 566.6 140.7 568.1 141.3C569.6 141.9 571.4 142.1 573.5 142.1V146.1H552.4C550.3 142.4 548.6 139.3 547.2 136.9C545.8 134.5 544.7 132.5 543.7 130.9C542.7 129.3 541.9 127.9 541.1 126.6C540.3 125.3 539.5 123.9 538.6 122.4C537.8 121 537 120.1 536.1 119.7C535.3 119.3 534 119.1 532.4 119.1H530.5V133.5C530.5 136 530.7 137.8 531.2 139.1C531.6 140.3 532.5 141.1 533.8 141.5C535.1 141.9 537.1 142.1 539.7 142.1V146.1L539.9 146.3ZM530.7 114.8H534.2C537.3 114.7 539.9 114.2 542 113.4C544.1 112.6 545.7 111.3 546.8 109.4C547.9 107.5 548.4 104.9 548.4 101.6C548.4 98.2997 547.5 95.1997 545.6 93.0997C543.7 90.9997 540.6 89.8997 536.3 89.8997C532 89.8997 534.3 89.8997 533.4 89.8997C532.5 89.8997 531.6 89.8997 530.7 90.0997V114.8Z" fill="black" stroke="black" stroke-width="0.2"/>
<path d="M610.6 147.3C600.1 147.3 592.3 144.6 587.2 139.1C582.1 133.6 579.6 125.9 579.6 115.9C579.6 105.9 581 102.6 583.7 97.9C586.4 93.2 590.1 89.8 594.8 87.5C599.5 85.2 604.8 84.1 610.8 84.1C616.8 84.1 616.7 84.4 618.6 84.9C620.5 85.4 622.1 86 623.3 86.6C624.5 87.2 625.5 87.5 626.3 87.5C627.1 87.5 628 87.1 628.4 86.4C628.8 85.7 629.1 84.9 629.4 84H633.5V106.4H629C627.8 100.3 625.7 95.8 622.7 93.1C619.7 90.4 615.7 89 610.8 89C605.9 89 600.8 91.1 598.2 95.4C595.6 99.7 594.3 105.9 594.3 114.1C594.3 122.3 595.6 130.1 598.1 134.7C600.6 139.3 604.8 141.6 610.7 141.6C616.6 141.6 615.7 141.3 617.5 140.7C619.3 140.1 621.1 139.1 622.8 137.6V129.5C622.8 127.3 622.6 125.6 622.2 124.4C621.8 123.2 621.1 122.4 619.9 122C618.7 121.6 617 121.4 614.7 121.4V117.3H641V121.4C638.4 121.4 636.7 121.9 636 122.8C635.3 123.7 634.9 125.7 634.9 128.6V140.8C631.5 142.7 627.9 144.2 624.1 145.4C620.3 146.5 615.9 147.1 610.7 147.1V147.3H610.6Z" fill="black" stroke="black" stroke-width="0.2"/>
<path d="M695.6 146.3H663.2V142.3C665.9 142.3 667.9 142.2 669.2 141.8C670.5 141.5 671.4 140.7 671.7 139.5C672.1 138.3 672.3 136.3 672.3 133.6V123.1L659.8 101.9C658.1 98.8999 656.6 96.5999 655.4 94.8999C654.2 93.1999 653.2 91.9999 652.2 91.1999C651.3 90.3999 650.4 89.8999 649.5 89.6999C648.7 89.4999 647.7 89.3999 646.6 89.3999V85.3999H675.5V89.3999C673 89.3999 671.5 89.5999 670.8 89.9999C670.1 90.3999 669.8 90.8999 669.8 91.5999C669.8 92.5999 670.3 93.8999 671.2 95.5999L679 109.7L682.5 117.2H683.2L694.6 94.6999C694.8 94.2999 695.1 93.8999 695.3 93.2999C695.5 92.6999 695.6 92.1999 695.6 91.7999C695.6 91.0999 695.3 90.5999 694.7 90.0999C694.1 89.5999 692.6 89.3999 690.3 89.3999V85.3999H711.4V89.3999C709.7 89.3999 708.2 89.6999 707 90.0999C705.8 90.4999 704.7 91.1999 703.7 92.2999C702.7 93.3999 701.5 95.0999 700.1 97.4999L686.2 123.4V133.8C686.2 136.5 686.5 138.4 687 139.7C687.5 140.9 688.5 141.7 689.8 142.1C691.2 142.4 693.1 142.6 695.6 142.6V146.6V146.3Z" fill="black" stroke="black" stroke-width="0.2"/>
<path d="M753.8 178.4H187.6V183.3H753.8V178.4Z" fill="black" stroke="black" stroke-width="0.2"/>
<path d="M231.3 261.4C226.4 261.4 222.2 260.4 218.8 258.4C215.3 256.3 212.6 253.5 210.7 249.8C208.9 246 207.9 241.6 207.9 236.4C207.9 231.2 208.9 227 210.7 223.2C212.5 219.4 215.2 216.5 218.8 214.5C222.3 212.4 226.5 211.4 231.3 211.4C236.1 211.4 240.4 212.4 243.8 214.4C247.3 216.5 250 219.3 251.8 222.9C253.6 226.5 254.6 230.8 254.6 235.6C254.6 240.4 253.6 245.2 251.8 249.1C250 253 247.3 255.9 243.7 258.1C240.2 260.3 236 261.3 231.2 261.3H231.3V261.4ZM231.4 258.3C236.7 258.3 240.6 256.5 243.2 252.7C245.8 248.9 247.1 243.3 247.1 236C247.1 228.7 246.5 227.8 245.2 224.6C243.9 221.4 242.1 218.9 239.7 217.2C237.3 215.5 234.5 214.6 231.4 214.6C226.7 214.6 222.9 216.5 220.1 220.3C217.3 224.1 215.9 229.4 215.9 236.1C215.9 242.8 217.2 248.5 219.8 252.5C222.4 256.5 226.4 258.5 231.7 258.5H231.6L231.4 258.3Z" fill="#231F20"/>
<path d="M278.8 260.5H259.7V258.3C261.5 258.3 262.8 258.3 263.7 257.9C264.6 257.5 265.1 256.9 265.4 256.1C265.7 255.1 265.8 253.7 265.8 251.9V229.3H260.2V226.2H265.8C265.8 224.4 265.8 222.7 266 221.2C266 219.8 266.4 218.5 266.8 217.3C267.2 216.1 267.7 215 268.3 213.8C269.3 212.1 270.6 210.8 272.1 209.8C273.7 208.8 275.8 208.3 278.4 208.3C281 208.3 282.8 208.7 284.3 209.7C285.9 210.6 286.7 211.9 286.7 213.5C286.7 215.1 286.4 215.3 285.8 215.9C285.2 216.5 284.5 216.7 283.6 216.7C282.7 216.7 281.9 216.4 281.2 215.8C280.6 215.3 280 214.6 279.6 213.9C279.2 213.2 278.6 212.5 278.1 212C277.6 211.5 276.8 211.1 275.8 211.1C274.4 211.1 273.4 211.7 272.9 212.9C272.4 214.1 272 216.2 272 219.4V226H284.7V229.1H272V251.7C272 253.6 272.2 255 272.5 255.9C272.9 256.9 273.6 257.4 274.6 257.7C275.6 258 277 258.1 278.7 258.1V260.5H278.8Z" fill="#231F20"/>
<path d="M300.6 260.5H281.8V258.4C283.6 258.4 284.9 258.4 285.8 258C286.7 257.6 287.2 257 287.5 256.1C287.8 255.2 287.9 253.7 287.9 251.8V229.2H282.3V226.1H287.9C287.9 224.2 287.9 222.5 288.1 221C288.3 219.6 288.5 218.2 289 217C289.4 215.8 290 214.6 290.6 213.5C291.6 211.9 293.2 210.6 295.3 209.4C297.4 208.2 300.4 207.7 303.9 207.7C307.4 207.7 307.9 207.9 309.5 208.3C311.1 208.7 312.4 209.4 313.3 210.2C314.2 211 314.7 212.3 314.7 213.5C314.7 214.7 314.4 215.3 313.7 216C313.1 216.6 312.2 217 311.1 217C310 217 309.2 216.6 308.6 215.8C308.1 215 307.5 214.1 307 213C306.6 211.9 305.9 211.2 305.2 210.8C304.4 210.4 303.4 210.3 302.1 210.3C299.5 210.3 297.6 211.1 296.2 212.7C294.8 214.3 294.1 217.1 294.1 221.1V226H308.7V229.1H294.1V251.7C294.1 253.5 294.3 254.9 294.6 255.9C294.9 256.9 295.6 257.5 296.4 257.8C297.2 258.1 298.7 258.2 300.3 258.2V260.3H300.4L300.6 260.5Z" fill="#231F20"/>
<path d="M322.3 260.5H305.4V258.3C307 258.3 308.2 258.1 309 257.8C309.8 257.5 310.2 256.9 310.4 256.1C310.6 255.3 310.6 254.3 310.6 253V233C310.6 231.5 310.4 230.4 309.8 229.9C309.2 229.4 308.4 229 307.3 229H305.2V226.2L314.8 225.4H316.7V253C316.7 254.4 316.7 255.5 317 256.2C317.3 256.9 317.8 257.5 318.5 257.8C319.2 258.1 320.6 258.2 322.3 258.2V260.4H322.2L322.3 260.5Z" fill="#231F20"/>
<path d="M353.6 249.6L355 250.7C354 252.6 353.1 254.5 351.8 256.1C350.6 257.7 349.1 259 347.4 259.9C345.7 260.8 343.4 261.3 340.8 261.3C338.2 261.3 335.2 260.5 332.9 259.1C330.7 257.6 329 255.5 327.8 252.9C326.6 250.3 326.1 247.3 326.1 243.9C326.1 240.5 326.7 236.7 328 233.9C329.3 231.1 331.2 228.8 333.6 227.3C336.1 225.7 339.1 224.9 342.6 224.9C346.1 224.9 348.9 225.7 350.8 227.2C352.7 228.7 353.8 230.5 353.8 232.7C353.8 234.9 353.6 234.6 353 235.2C352.4 235.8 351.7 236.1 350.7 236.1C349.7 236.1 348.8 235.8 348.2 235.2C347.6 234.6 347.2 233.9 346.8 233.1C346.5 232.2 346.2 231.5 345.7 230.6C345.4 229.7 344.8 229.1 344.2 228.5C343.6 228 342.6 227.6 341.3 227.6C338.3 227.6 336 228.7 334.3 230.8C332.6 232.9 331.8 236.2 331.8 240.4C331.8 244.6 332.8 248.5 334.6 251.4C336.4 254.3 339.2 255.7 343 255.7C346.8 255.7 347.3 255.2 348.8 254.2C350.3 253.2 351.8 251.7 353.5 249.6V249.4H353.4L353.6 249.6Z" fill="#231F20"/>
<path d="M374.7 261.2C371.8 261.2 369.1 260.6 366.7 259.1C364.3 257.6 362.5 255.6 361.1 252.9C359.7 250.2 359 246.9 359 243C359 239.1 359.6 235.4 361.1 232.9C362.5 230.2 364.3 228.3 366.7 227C369.1 225.7 371.7 225.1 374.5 225.1C377.3 225.1 381.7 226.5 384.2 229.3C386.7 232.1 388 236.1 388.2 241.2H364.3V238.5H381.2C381.2 236.7 380.9 234.9 380.2 233.4C379.7 231.8 378.8 230.5 377.6 229.5C376.5 228.5 375 228 373.3 228C370.5 228 368.3 229.1 366.9 231.3C365.5 233.6 364.7 236.7 364.7 240.7C364.7 244.7 365.2 246.9 366.3 249.1C367.4 251.4 368.8 253 370.5 254.2C372.2 255.3 374.2 255.8 376.1 255.8C378 255.8 379.8 255.6 381 255C382.3 254.5 383.3 253.8 384.2 252.9C385.1 252 385.9 251.1 386.7 250.1L388.1 251.2C387.5 252.6 386.7 253.9 385.9 255.1C385 256.4 384.2 257.5 383.1 258.3C382 259.3 380.8 259.9 379.4 260.5C378 261 376.3 261.3 374.4 261.3L374.7 261.2Z" fill="#231F20"/>
<path d="M423.2 261.2C418 261.2 414 259.6 411.1 256.3C408.2 253.1 406.7 248.5 406.7 242.6C406.7 236.7 407.3 235.9 408.8 233.2C410.2 230.5 412.1 228.5 414.5 226.9C417 225.4 419.9 224.6 423.1 224.6C428.2 224.6 432.2 226.2 435.1 229.3C438 232.4 439.5 236.7 439.5 242.1C439.5 247.5 438.9 249.7 437.4 252.5C435.9 255.3 434.1 257.4 431.7 258.9C429.2 260.3 426.4 261.1 423.3 261.1H423.2V261.2ZM423.5 258.3C425.6 258.3 427.2 257.9 428.6 256.9C430 255.9 431 254.4 431.7 252.2C432.5 249.9 432.8 246.8 432.8 242.9C432.8 239 431.9 234.7 430.3 232C428.7 229.2 426.2 227.8 423 227.8C419.8 227.8 417.9 229 416.2 231.4C414.5 233.8 413.6 237.2 413.6 242C413.6 246.8 414.5 252 416.2 254.6C417.9 257.2 420.4 258.5 423.5 258.5V258.3Z" fill="#231F20"/>
<path d="M463.1 260.5H443.3V258.3C445.1 258.3 446.4 258.3 447.3 257.9C448.2 257.6 448.7 256.9 449 256.1C449.3 255.1 449.4 253.7 449.4 251.9V228.6C449.4 225.8 449.4 223.5 449.6 221.7C449.6 219.9 449.9 218.4 450.2 217.2C450.5 216 451.1 214.8 451.7 213.6C452.7 211.9 454 210.6 455.4 209.6C456.9 208.6 459 208.2 461.4 208.2C463.8 208.2 464.4 208.4 465.6 208.7C466.8 209.1 467.8 209.7 468.5 210.4C469.3 211.2 469.6 212.1 469.6 213.2C469.6 214.3 469.3 215 468.7 215.6C468.1 216.2 467.4 216.4 466.5 216.4C465.6 216.4 464.8 216.1 464.2 215.4C463.7 214.8 463 214.1 462.5 213.5C462 212.9 461.5 212.2 460.9 211.7C460.4 211.2 459.6 210.8 458.7 210.8C457.3 210.8 456.4 211.4 455.9 212.6C455.4 213.9 455.1 216.1 455.1 219.1V251.7C455.1 253.6 455.3 255 455.6 255.9C456 256.9 456.7 257.4 457.8 257.7C458.9 258 460.5 258.1 462.5 258.1V260.3L462.7 260.5H463.1ZM464.5 229.2H443.9V226.1H464.5V229.2Z" fill="#231F20"/>
<path d="M488.2 261.6H485.9L485.3 245.7H487.6C488.5 249 489.5 251.6 490.7 253.5C491.9 255.3 493.3 256.5 495.1 257.2C496.8 257.8 499 258.2 501.5 258.2C504 258.2 505 258 506.2 257.4C507.4 256.8 508.6 256.1 509.3 254.9C510 253.7 510.4 252.2 510.4 250.4C510.4 248.6 509.8 246.4 508.6 245C507.4 243.6 505.9 242.3 504 241.2C502.2 240.1 500.2 238.9 498.2 237.9C496.3 236.8 494.3 235.5 492.6 234.3C490.8 233 489.3 231.5 488.2 229.8C487 228.1 486.5 225.9 486.5 223.3C486.5 220.7 487.1 218.6 488.4 216.8C489.7 215.1 491.3 213.8 493.5 212.8C495.7 211.8 497.9 211.4 500.5 211.4C503.1 211.4 504.5 211.6 505.7 211.9C506.9 212.2 507.9 212.7 508.6 213.1C509.3 213.5 510 213.6 510.5 213.6C511 213.6 511.6 213.6 511.9 213.2C512.2 212.8 512.5 212.3 512.8 211.6H514.7L515.2 226.3H513C511.9 222.2 510.6 219.2 508.9 217.2C507.2 215.3 504.5 214.3 500.7 214.3C496.9 214.3 496.3 214.8 494.9 216C493.5 217.2 492.8 218.9 492.8 221.2C492.8 223.5 493.3 224.5 494.3 225.8C495.4 227.1 496.7 228.3 498.3 229.3C499.9 230.4 501.8 231.4 503.5 232.4C505.1 233.4 506.7 234.2 508.4 235.2C510.1 236.2 511.5 237.1 512.9 238.3C514.2 239.5 515.3 240.9 516.1 242.4C516.9 244 517.3 245.9 517.3 248C517.3 250.1 516.7 253.3 515.4 255.2C514.1 257.1 512.4 258.7 510.1 259.6C507.8 260.6 505.4 261.1 502.4 261.1C499.4 261.1 497.8 260.9 496.1 260.6C494.4 260.3 493.3 259.8 492.3 259.5C491.3 259.2 490.7 259 490 259C489.3 259 489 259.2 488.7 259.6C488.3 260 488.1 260.7 488.1 261.3L488.2 261.6Z" fill="#231F20"/>
<path d="M549.7 249.6L551.1 250.7C550.1 252.6 549.2 254.5 547.9 256.1C546.7 257.7 545.2 259 543.5 259.9C541.8 260.9 539.5 261.3 536.9 261.3C534.3 261.3 531.3 260.5 529 259.1C526.8 257.6 525.1 255.5 523.9 252.9C522.7 250.3 522.2 247.3 522.2 243.9C522.2 240.5 522.8 236.7 524.1 233.9C525.4 231.1 527.3 228.8 529.7 227.3C532.2 225.7 535.2 224.9 538.7 224.9C542.2 224.9 545 225.7 546.9 227.2C548.8 228.7 549.9 230.5 549.9 232.7C549.9 234.9 549.7 234.6 549.1 235.2C548.5 235.8 547.8 236.1 546.8 236.1C545.8 236.1 544.9 235.8 544.3 235.2C543.7 234.6 543.3 233.9 542.9 233.1C542.6 232.2 542.3 231.5 541.8 230.6C541.5 229.7 540.9 229.1 540.3 228.5C539.7 228 538.7 227.6 537.4 227.6C534.4 227.6 532.1 228.7 530.4 230.8C528.7 232.9 527.9 236.2 527.9 240.4C527.9 244.6 528.9 248.5 530.7 251.4C532.5 254.3 535.3 255.7 539.1 255.7C542.9 255.7 543.4 255.2 544.9 254.2C546.4 253.2 547.9 251.7 549.6 249.6V249.4H549.5L549.7 249.6Z" fill="#231F20"/>
<path d="M571.3 260.5H554.8V258.4C556.4 258.4 557.6 258.3 558.4 258C559.2 257.7 559.6 257.1 559.7 256.4C559.9 255.6 559.9 254.6 559.9 253.2V232.7C559.9 231.1 559.7 230.2 559.1 229.8C558.6 229.5 557.8 229.3 556.7 229.3C555.6 229.3 555.6 229.3 554.9 229.4V227.2L564.2 225.1H566.1V253.1C566.1 254.5 566.1 255.6 566.4 256.4C566.6 257.2 567 257.7 567.8 258C568.6 258.3 569.7 258.4 571.4 258.4V260.5H571.3ZM563.1 219.4C561.9 219.4 560.8 219 560.1 218.1C559.4 217.2 558.9 216.3 558.9 215.2C558.9 214.1 559.3 213.1 560.1 212.3C560.9 211.5 561.8 211.1 563.1 211.1C564.4 211.1 565.4 211.5 566.1 212.3C566.8 213.1 567.3 214 567.3 215.2C567.3 216.4 566.9 217.4 566.1 218.1C565.3 219 564.4 219.4 563.1 219.4Z" fill="#231F20"/>
<path d="M591.6 261.2C588.7 261.2 586 260.6 583.6 259.1C581.2 257.7 579.4 255.6 578 252.9C576.6 250.2 575.9 246.9 575.9 243C575.9 239.1 576.5 235.4 578 232.9C579.4 230.2 581.2 228.3 583.6 227C586 225.7 588.6 225.1 591.4 225.1C594.2 225.1 598.6 226.5 601.1 229.3C603.6 232.1 604.9 236.1 605.1 241.2H581.2V238.5H598.1C598.1 236.7 597.8 234.9 597.1 233.4C596.6 231.8 595.7 230.5 594.5 229.5C593.4 228.5 591.9 228 590.2 228C587.4 228 585.2 229.1 583.8 231.3C582.4 233.6 581.6 236.7 581.6 240.7C581.6 244.7 582.1 246.9 583.2 249.1C584.3 251.3 585.7 253 587.4 254.2C589.1 255.4 591.1 255.8 593 255.8C594.9 255.8 596.7 255.6 597.9 255C599.2 254.5 600.2 253.8 601.1 252.9C602 252 602.8 251.1 603.6 250.1L605 251.2C604.4 252.6 603.6 253.9 602.8 255.1C601.9 256.4 601.1 257.5 600 258.3C598.9 259.3 597.7 259.9 596.3 260.5C594.9 261.1 593.2 261.3 591.3 261.3L591.6 261.2Z" fill="#231F20"/>
<path d="M625.2 260.5H608.4V258.4C610 258.4 611.2 258.3 612 258C612.8 257.7 613.2 257.1 613.3 256.4C613.5 255.6 613.5 254.6 613.5 253.2V232.6C613.5 231.3 613.3 230.4 612.7 230C612.1 229.6 611.4 229.4 610.4 229.4C609.4 229.4 609.1 229.4 608.5 229.5V227.3L617.8 225.1H619.5V253.1C619.5 254.5 619.5 255.6 619.8 256.3C620 257.1 620.4 257.6 621.3 257.9C622.1 258.2 623.4 258.3 625.1 258.3V260.4H625.2V260.5ZM646.9 260.5H630V258.4C631.7 258.4 633 258.3 633.8 258C634.6 257.7 635 257.1 635.2 256.4C635.4 255.7 635.4 254.6 635.4 253.2V239.9C635.4 237 635.1 234.7 634.4 233.3C633.8 231.8 632.9 230.8 631.9 230.4C630.8 230 629.7 229.8 628.7 229.8C627.7 229.8 626 230.1 624.9 230.7C623.8 231.3 622.7 231.9 621.9 232.8C621 233.6 620.2 234.3 619.4 235L618.9 231.4H620C622.1 229.7 623.9 228.2 625.7 227C627.5 225.8 629.6 225.3 631.9 225.3C635.2 225.3 637.7 226.4 639.3 228.6C640.9 230.8 641.7 234.1 641.7 238.3V253.4C641.7 254.8 641.7 255.9 642 256.6C642.3 257.3 642.8 257.9 643.5 258.2C644.2 258.5 645.4 258.6 647.1 258.6V260.7H647L646.9 260.5Z" fill="#231F20"/>
<path d="M676.9 249.6L678.3 250.7C677.3 252.6 676.4 254.5 675.1 256.1C673.9 257.7 672.4 259 670.7 259.9C669 260.9 666.7 261.3 664.1 261.3C661.5 261.3 658.5 260.5 656.2 259.1C654 257.6 652.3 255.5 651.1 252.9C649.9 250.3 649.4 247.3 649.4 243.9C649.4 240.5 650 236.7 651.3 233.9C652.6 231.1 654.5 228.8 656.9 227.3C659.4 225.7 662.4 224.9 665.9 224.9C669.4 224.9 672.2 225.7 674.1 227.2C676 228.7 677.1 230.5 677.1 232.7C677.1 234.9 676.9 234.6 676.3 235.2C675.7 235.8 675 236.1 674 236.1C673 236.1 672.1 235.8 671.5 235.2C670.9 234.6 670.5 233.9 670.1 233.1C669.8 232.2 669.5 231.5 669 230.6C668.7 229.7 668.1 229.1 667.5 228.5C666.9 228 665.9 227.6 664.6 227.6C661.6 227.6 659.3 228.7 657.6 230.8C655.9 233 655.1 236.2 655.1 240.4C655.1 244.6 656.1 248.5 657.9 251.4C659.7 254.3 662.5 255.7 666.3 255.7C670.1 255.7 670.6 255.2 672.1 254.2C673.6 253.2 675.1 251.7 676.8 249.6V249.4H676.7L676.9 249.6Z" fill="#231F20"/>
<path d="M697.8 261.2C694.9 261.2 692.2 260.6 689.8 259.1C687.4 257.7 685.6 255.6 684.2 252.9C682.8 250.2 682.1 246.9 682.1 243C682.1 239.1 682.7 235.4 684.2 232.9C685.6 230.2 687.4 228.3 689.8 227C692.2 225.7 694.8 225.1 697.6 225.1C700.4 225.1 704.8 226.5 707.3 229.3C709.8 232.1 711.1 236.1 711.3 241.2H687.4V238.5H704.3C704.3 236.7 704 234.9 703.3 233.4C702.8 231.8 701.9 230.5 700.7 229.5C699.6 228.5 698.1 228 696.4 228C693.6 228 691.4 229.1 690 231.3C688.6 233.6 687.8 236.7 687.8 240.7C687.8 244.7 688.3 246.9 689.4 249.1C690.5 251.3 691.9 253 693.6 254.2C695.3 255.4 697.3 255.8 699.2 255.8C701.1 255.8 702.9 255.6 704.1 255C705.4 254.5 706.4 253.8 707.3 252.9C708.2 252 709 251.1 709.8 250.1L711.2 251.2C710.6 252.6 709.8 253.9 709 255.1C708.1 256.4 707.3 257.5 706.2 258.3C705.1 259.3 703.9 259.9 702.5 260.5C701.1 261.1 699.4 261.3 697.5 261.3L697.8 261.2Z" fill="#231F20"/>
</svg>
